<svg width="64" height="65" viewBox="0 0 64 65" fill="none" xmlns="http://www.w3.org/2000/svg">
<path d="M49.8886 18.0675L51.2697 19.0675C53.6717 21.0049 55.0528 23.1923 55.353 25.6922C57.9351 25.1922 61.2378 25.5672 62.6789 26.5672L64 27.3797L63.7598 27.8796C63.3395 28.8171 63.2194 29.0671 63.1593 29.1921C60.8174 33.8794 56.1937 33.9419 54.032 33.8794C48.5676 47.5663 36.9182 55.1285 21.1855 55.1285C13.9197 55.1285 8.39522 52.8161 4.67222 48.2538C-0.251743 42.2541 -0.251743 34.4419 0.168596 31.942L0.288692 31.442H43.7037C45.9855 31.442 47.7269 30.817 48.5676 30.317C47.6668 28.9421 47.3666 27.3797 47.3066 26.5047C47.1264 24.0048 47.7269 21.3799 48.9279 19.505L49.8886 18.0675ZM11.5778 23.9423V30.192H4.97246V23.9423H11.5778ZM19.3841 23.9423V30.192H12.7788V23.9423H19.3841ZM27.1904 23.9423V30.192H20.585V23.9423H27.1904ZM34.9966 23.9423V30.192H28.3913V23.9423H34.9966ZM42.8029 23.9423V30.192H36.1976V23.9423H42.8029ZM34.9966 16.4426V22.6923H28.3913V16.4426H34.9966ZM27.1904 16.4426V22.6923H20.585V16.4426H27.1904ZM19.3841 16.4426V22.6923H12.7788V16.4426H19.3841ZM34.9966 8.9429V15.1926H28.3913V8.9429H34.9966Z" fill="white" fill-opacity="0.5"/>
</svg>
