<svg width="64" height="65" viewBox="0 0 64 65" fill="none" xmlns="http://www.w3.org/2000/svg">
<g clip-path="url(#clip0_11_936)">
<path fill-rule="evenodd" clip-rule="evenodd" d="M21.4167 0.0678711C15.5287 0.0678711 10.75 4.84654 10.75 10.7345C10.75 16.6225 15.5287 21.4012 21.4167 21.4012C15.5287 21.4012 10.75 26.1799 10.75 32.0679C10.75 37.9559 15.5287 42.7345 21.4167 42.7345C15.5287 42.7345 10.75 47.5132 10.75 53.4012C10.75 59.2892 15.5287 64.0679 21.4167 64.0679C27.3047 64.0679 32.0833 59.2892 32.0833 53.4012L32.0833 32.0679C32.0833 37.9559 36.862 42.7345 42.75 42.7345C48.638 42.7345 53.4167 37.9559 53.4167 32.0679C53.4167 26.1799 48.638 21.4012 42.75 21.4012C48.638 21.4012 53.4167 16.6225 53.4167 10.7345C53.4167 4.84654 48.638 0.0678711 42.75 0.0678711H21.4167ZM42.75 21.4012H32.0833L32.0833 32.0679C32.0833 26.1799 36.862 21.4012 42.75 21.4012Z" fill="white" fill-opacity="0.5"/>
</g>
<defs>
<clipPath id="clip0_11_936">
<rect width="64" height="64" fill="white" transform="translate(0 0.0678711)"/>
</clipPath>
</defs>
</svg>
