<svg width="65" height="65" viewBox="0 0 65 65" fill="none" xmlns="http://www.w3.org/2000/svg">
<path fill-rule="evenodd" clip-rule="evenodd" d="M62.7941 29.2168L34.8502 1.27501C33.2421 -0.334508 30.6319 -0.334508 29.0217 1.27501L23.2191 7.07755L30.5799 14.4383C32.2906 13.8604 34.2519 14.248 35.6156 15.6118C36.9857 16.9839 37.3705 18.9621 36.7785 20.6784L43.8725 27.7723C45.5887 27.181 47.569 27.5638 48.9398 28.9366C50.8555 30.8516 50.8555 33.9555 48.9398 35.8719C47.0234 37.7882 43.9195 37.7882 42.0024 35.8719C40.5614 34.4295 40.2054 32.313 40.935 30.5377L34.3193 23.922L34.3186 41.3317C34.7856 41.5634 35.2266 41.8717 35.6156 42.2594C37.5313 44.1743 37.5313 47.2782 35.6156 49.196C33.6992 51.1117 30.594 51.1117 28.6804 49.196C26.7647 47.2782 26.7647 44.1743 28.6804 42.2594C29.1537 41.7868 29.7014 41.4293 30.2857 41.1892V23.6172C29.7014 23.3785 29.1544 23.0231 28.6804 22.547C27.2289 21.0976 26.8799 18.9677 27.6235 17.1855L20.3681 9.92861L1.20766 29.0876C-0.402554 30.6985 -0.402554 33.3087 1.20766 34.9182L29.1516 62.8607C30.7604 64.4702 33.3699 64.4702 34.9808 62.8607L62.7941 35.0481C64.4036 33.4379 64.4036 30.8263 62.7941 29.2168Z" fill="white" fill-opacity="0.5"/>
</svg>
