<svg width="64" height="65" viewBox="0 0 64 65" fill="none" xmlns="http://www.w3.org/2000/svg">
<path fill-rule="evenodd" clip-rule="evenodd" d="M32.0003 1.56787C14.7435 1.56787 0.75 15.5588 0.75 32.8181C0.75 46.6253 9.70415 58.3392 22.1208 62.4714C23.6826 62.7607 24.256 61.7935 24.256 60.9681C24.256 60.2229 24.227 57.7612 24.2136 55.1499C15.5197 57.0403 13.6852 51.4628 13.6852 51.4628C12.2637 47.8507 10.2154 46.8903 10.2154 46.8903C7.3801 44.9507 10.4292 44.9906 10.4292 44.9906C13.5672 45.211 15.2196 48.2109 15.2196 48.2109C18.0068 52.9884 22.5302 51.6072 24.3134 50.8087C24.5939 48.7889 25.4038 47.4103 26.2975 46.63C19.3564 45.8398 12.0598 43.1602 12.0598 31.186C12.0598 27.7741 13.2805 24.9864 15.2796 22.7979C14.9551 22.0108 13.8855 18.8324 15.5823 14.5279C15.5823 14.5279 18.2065 13.688 24.1784 17.7312C26.6711 17.0388 29.3445 16.6916 32.0003 16.6796C34.656 16.6916 37.3315 17.0388 39.8289 17.7312C45.7935 13.688 48.414 14.5279 48.414 14.5279C50.115 18.8324 49.0449 22.0108 48.7204 22.7979C50.7241 24.9864 51.9366 27.7741 51.9366 31.186C51.9366 43.1887 44.626 45.8315 37.6673 46.6051C38.7882 47.5749 39.7869 49.4767 39.7869 52.3922C39.7869 56.5736 39.7507 59.9388 39.7507 60.9681C39.7507 61.7997 40.3132 62.7741 41.8973 62.4673C54.3072 58.3304 63.25 46.6207 63.25 32.8181C63.25 15.5588 49.2586 1.56787 32.0003 1.56787ZM12.4542 46.0845C12.3854 46.2398 12.1412 46.2863 11.9186 46.1797C11.692 46.0778 11.5647 45.8661 11.6382 45.7104C11.7054 45.5505 11.9502 45.506 12.1763 45.6131C12.4035 45.715 12.5329 45.9288 12.4542 46.0845ZM13.9914 47.4561C13.8424 47.5943 13.551 47.5301 13.3533 47.3117C13.1489 47.0939 13.1106 46.8025 13.2617 46.6623C13.4154 46.5241 13.698 46.5888 13.9029 46.8067C14.1073 47.0271 14.1472 47.3164 13.9914 47.4561ZM15.046 49.211C14.8545 49.344 14.5414 49.2193 14.3479 48.9414C14.1564 48.6635 14.1564 48.3302 14.352 48.1967C14.5461 48.0632 14.8545 48.1833 15.0506 48.4591C15.2416 48.7417 15.2416 49.0749 15.046 49.211ZM16.8294 51.2435C16.6581 51.4323 16.2933 51.3816 16.0263 51.1239C15.7531 50.8719 15.677 50.5143 15.8488 50.3254C16.0221 50.136 16.389 50.1893 16.6581 50.445C16.9293 50.6965 17.0121 51.0566 16.8294 51.2435ZM19.1344 51.9296C19.0588 52.1744 18.7075 52.2856 18.3535 52.1816C18.0001 52.0745 17.7687 51.7878 17.8402 51.5404C17.9136 51.2941 18.2666 51.1782 18.6231 51.2894C18.9761 51.396 19.2079 51.6807 19.1344 51.9296ZM21.7576 52.2206C21.7664 52.4783 21.4662 52.692 21.0946 52.6967C20.721 52.705 20.4188 52.4964 20.4147 52.2429C20.4147 51.9826 20.7081 51.7709 21.0817 51.7647C21.4533 51.7575 21.7576 51.9645 21.7576 52.2206ZM24.3345 52.1218C24.379 52.3733 24.1208 52.6316 23.7518 52.7004C23.3891 52.7666 23.0532 52.6114 23.0071 52.3619C22.9621 52.1042 23.225 51.846 23.5872 51.7793C23.9567 51.7151 24.2874 51.8662 24.3345 52.1218Z" fill="white" fill-opacity="0.5"/>
</svg>
