<svg width="34" height="33" viewBox="0 0 34 33" fill="none" xmlns="http://www.w3.org/2000/svg">
<path fill-rule="evenodd" clip-rule="evenodd" d="M16.7381 0.571533C7.67448 0.571533 0.333374 7.91264 0.333374 16.9762C0.333374 24.2353 5.02922 30.3666 11.5501 32.5402C12.3703 32.6837 12.6779 32.1916 12.6779 31.761C12.6779 31.3714 12.6574 30.0795 12.6574 28.7056C8.53572 29.4643 7.46942 27.7008 7.14133 26.778C6.95677 26.3064 6.15704 24.8505 5.45984 24.4609C4.88568 24.1533 4.06544 23.3946 5.43934 23.3741C6.73121 23.3536 7.65397 24.5634 7.96156 25.0555C9.43798 27.5368 11.7962 26.8396 12.7394 26.4089C12.883 25.3426 13.3136 24.6249 13.7852 24.2148C10.1352 23.8047 6.32109 22.3898 6.32109 16.115C6.32109 14.331 6.95677 12.8546 8.00257 11.7062C7.83853 11.2961 7.26436 9.61462 8.16662 7.35898C8.16662 7.35898 9.54051 6.92835 12.6779 9.04046C13.9903 8.67135 15.3847 8.4868 16.7791 8.4868C18.1735 8.4868 19.5679 8.67135 20.8803 9.04046C24.0177 6.90785 25.3916 7.35898 25.3916 7.35898C26.2938 9.61462 25.7197 11.2961 25.5556 11.7062C26.6014 12.8546 27.2371 14.3105 27.2371 16.115C27.2371 22.4103 23.4025 23.8047 19.7524 24.2148C20.3471 24.7275 20.8598 25.7117 20.8598 27.2497C20.8598 29.4438 20.8393 31.2073 20.8393 31.761C20.8393 32.1916 21.1468 32.7042 21.9671 32.5402C28.4469 30.3666 33.1428 24.2148 33.1428 16.9762C33.1428 7.91264 25.8017 0.571533 16.7381 0.571533Z" fill="white"/>
</svg>
