<svg width="64" height="65" viewBox="0 0 64 65" fill="none" xmlns="http://www.w3.org/2000/svg">
<g clip-path="url(#clip0_11_940)">
<path d="M32 0.0678711C14.3269 0.0678711 0 14.3948 0 32.0679C0 49.7411 14.3269 64.0679 32 64.0679C49.6732 64.0679 64 49.7411 64 32.0679C64 14.3948 49.6732 0.0678711 32 0.0678711ZM32 3.32211C47.8758 3.32211 60.7458 16.192 60.7458 32.0679C60.7458 47.9437 47.8758 60.8137 32 60.8137C16.1242 60.8137 3.25424 47.9437 3.25424 32.0679C3.25424 16.192 16.1242 3.32211 32 3.32211Z" fill="white" fill-opacity="0.5"/>
<path d="M32.3614 9.28821C44.9424 9.28821 55.1412 19.487 55.1412 32.0679C55.1412 44.6487 44.9424 54.8475 32.3614 54.8475C19.7806 54.8475 9.58179 44.6487 9.58179 32.0679C9.58179 28.9933 10.1909 26.0609 11.2952 23.3847C12.9075 25.5803 15.5075 27.0057 18.4405 27.0057C23.3332 27.0057 27.2992 23.0395 27.2992 18.147C27.2992 15.214 25.874 12.6139 23.6782 11.0016C26.3544 9.89737 29.2868 9.28821 32.3614 9.28821Z" fill="white" fill-opacity="0.5"/>
</g>
<defs>
<clipPath id="clip0_11_940">
<rect width="64" height="64" fill="white" transform="translate(0 0.0678711)"/>
</clipPath>
</defs>
</svg>
