<svg width="64" height="65" viewBox="0 0 64 65" fill="none" xmlns="http://www.w3.org/2000/svg">
<g clip-path="url(#clip0_11_935)">
<path fill-rule="evenodd" clip-rule="evenodd" d="M0.75 8.81787C0.75 4.39959 4.33172 0.817871 8.75 0.817871H55.25C59.6683 0.817871 63.25 4.39959 63.25 8.81787V55.3179C63.25 59.7361 59.6683 63.3179 55.25 63.3179H8.75C4.33172 63.3179 0.75 59.7361 0.75 55.3179V8.81787ZM17.1835 53.0474C17.1835 53.0474 17.1836 53.0474 17.1836 53.0474L17.1836 53.0474C18.5681 55.9838 21.2955 58.417 25.9937 58.417C31.1962 58.417 34.7621 55.648 34.7621 49.5647V32.4481C34.7621 30.8262 33.4473 29.5114 31.8254 29.5114C30.2035 29.5114 28.8887 30.8262 28.8887 32.4481V49.4817C28.8887 52.4182 27.6719 53.1731 25.742 53.1731C22.9352 53.1731 19.9798 51.3552 17.5785 52.8084L17.1836 53.0474L17.1836 53.0473C17.1836 53.0473 17.1835 53.0473 17.1835 53.0474ZM44.5055 51.812C43.3176 50.7989 41.6567 50.2733 40.3056 51.0556C38.9851 51.8202 38.4617 53.5203 39.471 54.6647C41.4409 56.8981 44.4821 58.4175 48.6505 58.4175C54.2303 58.4175 58.3836 55.5229 58.3836 50.2364C58.3836 45.328 55.5726 43.1466 50.5801 41.0069L49.1118 40.3776C46.5948 39.2867 45.504 38.5733 45.504 36.8112C45.504 35.385 46.5948 34.2943 48.315 34.2943C49.0314 34.2943 49.6407 34.4242 50.1822 34.7136C51.5566 35.448 53.1984 36.0997 54.5097 35.2577C55.7177 34.482 56.1479 32.8524 55.1649 31.8061C53.4061 29.9341 51.1663 29.1756 48.3149 29.1756C43.0704 29.1756 39.7142 32.5321 39.7142 36.9372C39.7142 41.7201 42.5252 43.9855 46.7628 45.7892L48.2308 46.419C50.9159 47.5933 52.51 48.3066 52.51 50.3204C52.51 51.9985 50.9581 53.2153 48.5245 53.2153C46.8005 53.2153 45.5229 52.6796 44.5055 51.812Z" fill="white" fill-opacity="0.5"/>
</g>
<defs>
<clipPath id="clip0_11_935">
<rect y="0.0678711" width="64" height="64" rx="8" fill="white"/>
</clipPath>
</defs>
</svg>
