<svg width="32" height="33" viewBox="0 0 32 33" fill="none" xmlns="http://www.w3.org/2000/svg">
<g clip-path="url(#clip0_11_666)">
<path d="M15.9999 0.238281C24.837 0.238281 32 7.40228 32 16.2383C32 25.0744 24.837 32.2383 15.9999 32.2383C7.1629 32.2383 0 25.0743 0 16.2383C0 7.40239 7.16301 0.238281 15.9999 0.238281Z" fill="white"/>
<path d="M9.01598 22.2222H12.012V12.2362H9.01598V22.2222ZM20.688 11.8903C19.234 11.8903 17.933 12.4213 17.0101 13.5933V12.2034H14.0031V22.2223H17.0101V16.8043C17.0101 15.6593 18.0591 14.5423 19.3731 14.5423C20.687 14.5423 21.0111 15.6593 21.0111 16.7763V22.2214H24.0071V16.5533C24.007 12.6163 22.143 11.8903 20.688 11.8903ZM10.5 11.2383C11.328 11.2383 12 10.5662 12 9.73822C12 8.9102 11.328 8.23828 10.5 8.23828C9.67197 8.23828 8.99994 8.91031 8.99994 9.73833C8.99994 10.5663 9.67197 11.2383 10.5 11.2383Z" fill="#08070B"/>
</g>
<defs>
<clipPath id="clip0_11_666">
<rect width="32" height="32" fill="white" transform="translate(0 0.238281)"/>
</clipPath>
</defs>
</svg>
