<svg width="29" height="65" viewBox="0 0 29 65" fill="none" xmlns="http://www.w3.org/2000/svg">
<path fill-rule="evenodd" clip-rule="evenodd" d="M13.0265 56.0829C14.1938 58.8206 14.082 63.4858 14.082 63.4858L15.7859 64.0679C15.7859 64.0679 15.4534 59.4964 15.9523 57.3353C16.0919 56.6627 16.4292 56.0754 16.8303 55.5839C16.7455 55.6434 16.7004 55.6731 16.7004 55.6731C15.0399 54.8954 14.5488 51.2902 14.469 47.9111C14.1377 52.0934 13.6642 55.1456 13.2095 56.2132C13.2095 56.2132 13.1455 56.1695 13.0265 56.0829V56.0829Z" fill="white" fill-opacity="0.5"/>
<path fill-rule="evenodd" clip-rule="evenodd" d="M14.0836 0.336147L14.082 0.23432C14.082 0.23432 14.9966 2.56146 15.9523 3.89125C16.8248 5.76152 24.7628 10.6238 28.1288 25.46C31.6198 45.8653 16.7004 55.6731 16.7004 55.6731C15.0399 54.8954 14.5488 51.2902 14.469 47.9111C14.1377 52.0934 13.6642 55.1457 13.2095 56.2132C13.2095 56.2132 -0.795719 46.6546 0.0355966 29.8238C0.824919 12.9926 10.7159 4.72257 12.6274 3.22636C13.8744 1.89656 13.916 1.3977 13.9992 0.0679016C14.0285 0.130646 14.0566 0.220658 14.0836 0.336156V0.336147Z" fill="white" fill-opacity="0.5"/>
</svg>
