<svg width="66" height="65" viewBox="0 0 66 65" fill="none" xmlns="http://www.w3.org/2000/svg">
<path d="M51.4517 50.8092C53.7576 49.8339 56.5069 49.4789 60.0544 49.5674C59.9546 48.9036 58.6869 48.1153 57.7582 47.5377C57.4465 47.3439 57.1729 47.1737 56.9946 47.0401C55.5756 46.0202 54.0678 44.9556 52.5603 44.0248C52.0746 43.7281 51.3754 43.4804 50.7025 43.2422C50.2697 43.0889 49.8477 42.9394 49.5005 42.7832C49.1458 42.6387 48.6626 42.4941 48.141 42.338C46.9019 41.9673 45.4457 41.5316 44.9775 40.8766C43.7717 39.309 42.9303 37.4135 42.09 35.5206C42.0032 35.3251 41.9164 35.1296 41.8292 34.9345C41.3894 33.929 40.9001 32.9038 40.408 31.8727C39.8584 30.7212 39.3054 29.5624 38.8139 28.416C38.5998 27.949 38.437 27.5075 38.2767 27.0729C38.0718 26.5173 37.871 25.9728 37.5724 25.4007C34.3351 19.1484 29.5464 13.9157 23.7373 10.2353C21.8303 9.038 19.7022 7.92915 17.3518 7.17554C16.634 6.96031 15.8389 6.92566 15.0359 6.89067C14.3506 6.86081 13.6596 6.8307 13.0062 6.68788H12.0749C11.5372 6.53852 11.0599 6.10739 10.6159 5.70634C10.4008 5.51205 10.1935 5.32482 9.99095 5.1801C8.61615 4.24901 7.24163 3.62781 5.60088 2.96295C5.02449 2.697 3.38374 2.07609 2.80733 2.56403C2.45236 2.65277 2.27516 2.78575 2.18642 3.14043C1.83173 3.67261 2.14247 4.47072 2.3639 4.95839C2.80343 5.89608 3.35921 6.58208 3.92872 7.28505C4.22108 7.6459 4.51705 8.01123 4.80278 8.41737C4.93925 8.60999 5.08153 8.80697 5.2262 9.00726C5.8807 9.91339 6.5841 10.8872 7.01993 11.8316C7.63494 13.1564 8.07331 14.557 8.51008 15.9524C8.89201 17.1726 9.27272 18.389 9.76925 19.5474C10.1682 20.4787 10.7891 21.5428 11.3655 22.3854C11.5463 22.632 11.7819 22.8542 12.0205 23.0791C12.4255 23.4609 12.8389 23.8506 13.0062 24.3809C13.4375 25.0995 12.6458 27.1575 12.1647 28.4079C12.0521 28.7005 11.9565 28.949 11.8977 29.1256C10.7446 32.7615 10.9663 37.8168 12.2966 40.965C12.3441 41.0759 12.3913 41.1887 12.4389 41.3022C12.9234 42.4594 13.4435 43.7015 14.7355 44.0248C14.7756 43.9846 14.7795 43.9717 14.7881 43.9656C14.7986 43.9581 14.816 43.9604 14.9129 43.936C14.9778 43.4263 15.033 42.9205 15.0875 42.4218C15.2935 40.5342 15.4884 38.7486 16.1545 37.2404C16.4719 36.4616 16.9954 35.8329 17.5057 35.2201C17.78 34.8907 18.0504 34.566 18.2829 34.2251C18.5643 34.3939 18.6671 34.7769 18.7728 35.1703C18.8336 35.3968 18.8953 35.6268 18.9926 35.8213C19.0344 35.9211 19.0765 36.0217 19.1189 36.1228C19.6596 37.4141 20.2414 38.8035 20.8993 40.0781C22.3625 42.9162 24.0035 45.6652 25.8657 48.1486C26.4864 49.0355 27.3735 50.0111 28.1716 50.8092C28.293 50.9154 28.4195 51.0061 28.5442 51.0953C28.7838 51.2669 29.0163 51.4335 29.1915 51.6961H29.2802V51.8293C28.4383 51.5205 27.7919 50.8566 27.1608 50.2084C26.7947 49.8324 26.4338 49.4617 26.0429 49.1687C24.0475 47.6609 21.6531 45.3993 20.2783 43.2266C19.8453 42.294 19.3874 41.3863 18.9231 40.4661C18.7693 40.1613 18.6149 39.8551 18.4604 39.5462C18.4604 39.5462 18.4606 39.5017 18.4604 39.4575C18.2909 39.6835 18.2655 39.9094 18.2348 40.1813C18.2174 40.3361 18.1983 40.5059 18.1499 40.6991C17.9856 41.3313 17.9041 41.9887 17.8254 42.6241C17.6281 44.2171 17.448 45.6714 16.0215 46.2419C13.7601 47.1733 12.0749 44.7339 11.3655 43.6256C9.10411 39.9452 8.4832 33.7371 10.0794 28.7264C10.2029 28.3408 10.2888 27.9283 10.3745 27.5169C10.5351 26.7459 10.6948 25.979 11.0995 25.4007C11.0106 24.8678 10.7043 24.5918 10.405 24.322C10.2561 24.1877 10.1088 24.055 9.99097 23.8929C9.37006 23.0506 8.83817 22.075 8.35022 21.1439C7.64123 19.7598 7.08667 18.17 6.54922 16.6292C6.38065 16.146 6.21377 15.6675 6.04433 15.2018C5.89297 14.8127 5.79437 14.4234 5.69709 14.0394C5.59485 13.6357 5.49405 13.2377 5.33495 12.8517C4.91577 11.9434 4.22165 11.0353 3.57722 10.1923C3.40351 9.965 3.23342 9.74247 3.07329 9.52594C2.90055 9.27804 2.67182 8.9907 2.41685 8.67041C1.16656 7.09977 -0.714766 4.73641 0.279744 2.34232C2.1422 -2.22496 8.66098 1.23346 11.188 2.82998C11.4407 2.99245 11.7081 3.22833 11.9842 3.47187C12.3865 3.82673 12.8073 4.19788 13.228 4.38199C13.7824 4.40425 14.3368 4.4375 14.8913 4.47075C15.4455 4.50399 15.9997 4.53722 16.5537 4.55947C16.7352 4.60195 16.9158 4.64376 17.0952 4.6853C18.9754 5.12071 20.7317 5.52743 22.2296 6.37742C29.8566 10.8562 34.8231 15.4235 39.3904 22.9618C40.0104 23.9763 40.4335 25.0447 40.8643 26.1326C41.1114 26.7565 41.361 27.3868 41.6517 28.017C42.7603 30.5889 44.0024 33.2934 45.2879 35.7326C45.4496 36.0559 45.6007 36.3897 45.7522 36.7241C46.1409 37.5824 46.5316 38.445 47.1062 39.147C47.3126 39.4422 47.7747 39.5997 48.2175 39.7506C48.4399 39.8264 48.6575 39.9006 48.8354 39.9897C49.4089 40.2851 50.0301 40.5533 50.6563 40.8236C51.6278 41.243 52.6112 41.6676 53.4472 42.2068C56.019 43.8031 58.5024 45.7095 60.7638 47.661C61.2209 48.07 61.5998 48.5703 61.9781 49.0699C62.2972 49.4912 62.6159 49.9121 62.9809 50.2773V50.6763C62.2715 50.898 61.5619 51.1197 60.8525 51.2972C60.0806 51.4956 59.3526 51.5733 58.6303 51.6505C57.9003 51.7285 57.1761 51.8059 56.4182 52.0065C56.3226 52.0339 56.2248 52.0621 56.125 52.0909C55.2521 52.3427 54.2339 52.6366 53.3584 52.7162C53.4026 52.7604 53.4472 52.8047 53.4472 52.8047C53.8746 54.0213 55.6919 55.0672 57.1813 55.9244C57.7005 56.2232 58.1799 56.4991 58.5466 56.7513C60.2761 57.9929 61.8723 59.5006 63.1584 61.2298C63.3795 61.4509 63.6006 61.661 63.8217 61.871C64.0441 62.0823 64.2665 62.2935 64.4887 62.5159C64.6389 62.7306 64.7371 62.9764 64.8338 63.2183C64.9368 63.4759 65.0379 63.729 65.1981 63.9349V64.0679C64.8101 63.9294 64.5434 63.6522 64.2789 63.3773C64.1201 63.2123 63.9621 63.0481 63.779 62.9151C63.3614 62.6303 62.9438 62.3211 62.5263 62.0119C61.9684 61.5988 61.4106 61.1857 60.8525 60.8309C59.9945 60.2889 59.0674 59.862 58.1358 59.433C57.2378 59.0195 56.3356 58.604 55.4868 58.0816C54.5115 57.4607 53.5801 56.7513 52.649 56.0419C51.8064 55.421 50.8756 54.2234 50.3431 53.3368C50.2089 53.1261 50.1245 52.8987 50.0432 52.6798C49.9364 52.3923 49.835 52.1193 49.6335 51.9178C49.6998 51.2878 50.3118 51.1289 50.8944 50.9775C51.0909 50.9265 51.284 50.8763 51.4517 50.8092Z" fill="white" fill-opacity="0.5"/>
<path d="M13.006 11.2552C13.5382 11.1222 14.0701 11.0332 14.824 11.0332C14.9645 11.1738 15.1399 11.2935 15.317 11.4143C15.5869 11.5985 15.8607 11.7854 16.0213 12.0533C16.1198 12.1912 16.1833 12.3291 16.2467 12.4671C16.3261 12.6396 16.4055 12.8121 16.5535 12.9846C16.5535 14.0487 16.2433 14.7581 15.6221 15.2018C15.6221 15.2018 15.5779 15.246 15.5336 15.2905C15.3564 14.9362 15.1904 14.5819 15.0243 14.2276C14.8578 13.8723 14.6913 13.5171 14.5135 13.1618C14.3409 12.9202 14.1414 12.6986 13.9411 12.4763C13.6272 12.1276 13.3115 11.777 13.0948 11.3439H13.006V11.2552Z" fill="white" fill-opacity="0.5"/>
</svg>
