<svg width="64" height="65" viewBox="0 0 64 65" fill="none" xmlns="http://www.w3.org/2000/svg">
<g clip-path="url(#clip0_11_951)">
<path fill-rule="evenodd" clip-rule="evenodd" d="M32.0567 63.2019C31.197 63.2019 30.3946 62.9727 29.6496 62.5715L22.0271 58.0439C20.8808 57.4134 21.454 57.1842 21.7978 57.0696C23.3452 56.5537 23.6318 56.4391 25.2365 55.5221C25.4085 55.4075 25.6377 55.4648 25.8097 55.5794L31.6555 59.0755C31.8847 59.1901 32.1713 59.1901 32.3432 59.0755L55.2107 45.8364C55.4399 45.7218 55.5546 45.4925 55.5546 45.206V18.7852C55.5546 18.4986 55.4399 18.2694 55.2107 18.1548L32.3432 4.97302C32.114 4.85839 31.8274 4.85839 31.6555 4.97302L8.78802 18.1548C8.55877 18.2694 8.44415 18.5559 8.44415 18.7852V45.206C8.44415 45.4352 8.55877 45.7218 8.78802 45.8364L15.035 49.4471C18.4164 51.1664 20.537 49.1605 20.537 47.1546V21.0777C20.537 20.7338 20.8235 20.3899 21.2247 20.3899H24.1476C24.4915 20.3899 24.8354 20.6765 24.8354 21.0777V47.1546C24.8354 51.6822 22.3709 54.3186 18.0726 54.3186C16.7544 54.3186 15.7228 54.3186 12.7999 52.8858L6.7821 49.4471C5.29199 48.5874 4.375 46.9827 4.375 45.2633V18.8425C4.375 17.1231 5.29199 15.5184 6.7821 14.6587L29.6496 1.41968C31.0824 0.61731 33.031 0.61731 34.4638 1.41968L57.3312 14.6587C58.8213 15.5184 59.7383 17.1231 59.7383 18.8425V45.2633C59.7383 46.9827 58.8213 48.5874 57.3312 49.4471L34.4638 62.6861C33.7187 63.03 32.859 63.2019 32.0567 63.2019ZM39.106 45.0341C29.0764 45.0341 27.0132 40.4491 27.0132 36.5519C27.0132 36.208 27.2998 35.8641 27.701 35.8641H30.6812C31.025 35.8641 31.3116 36.0934 31.3116 36.4373C31.7701 39.4748 33.0883 40.9649 39.1633 40.9649C43.9775 40.9649 46.0408 39.876 46.0408 37.2969C46.0408 35.8068 45.4677 34.7179 37.9598 33.9729C31.7128 33.3424 27.8156 31.9669 27.8156 26.9808C27.8156 22.3385 31.7128 19.5876 38.2463 19.5876C45.5823 19.5876 49.1929 22.1093 49.6514 27.6112C49.6514 27.7832 49.5941 27.9551 49.4795 28.127C49.3649 28.2417 49.1929 28.3563 49.021 28.3563H46.0408C45.7542 28.3563 45.4677 28.127 45.4103 27.8405C44.7226 24.6883 42.9459 23.6567 38.2463 23.6567C32.9737 23.6567 32.3432 25.4907 32.3432 26.8662C32.3432 28.5282 33.0883 29.044 40.195 29.961C47.2443 30.878 50.5684 32.1962 50.5684 37.125C50.5111 42.1685 46.3846 45.0341 39.106 45.0341Z" fill="white" fill-opacity="0.5"/>
</g>
<defs>
<clipPath id="clip0_11_951">
<rect width="64" height="64" fill="white" transform="translate(0 0.0679016)"/>
</clipPath>
</defs>
</svg>
