<svg width="62" height="65" viewBox="0 0 62 65" fill="none" xmlns="http://www.w3.org/2000/svg">
<path fill-rule="evenodd" clip-rule="evenodd" d="M25.8158 19.0939C25.1283 18.9982 24.5055 19.0867 24.1905 19.3252C24.0131 19.4594 23.9584 19.6149 23.9437 19.722C23.9041 20.0055 24.1028 20.3189 24.2247 20.4806C24.57 20.9382 25.0745 21.2528 25.5738 21.3221C25.6462 21.3321 25.7181 21.337 25.7897 21.337C26.6224 21.337 27.3793 20.6887 27.4461 20.2101C27.5295 19.6108 26.6594 19.2113 25.8158 19.0939Z" fill="white" fill-opacity="0.5"/>
<path fill-rule="evenodd" clip-rule="evenodd" d="M48.5941 19.1129H48.594C48.5285 18.6431 47.6924 18.5092 46.8991 18.6195C46.107 18.7299 45.3387 19.0874 45.4029 19.5582C45.4544 19.9244 46.1153 20.5495 46.898 20.5493C46.964 20.5493 47.0307 20.5449 47.0979 20.5355C47.6203 20.4632 48.0036 20.1314 48.1856 19.9402C48.4631 19.6489 48.6234 19.324 48.5941 19.1129Z" fill="white" fill-opacity="0.5"/>
<mask id="path-3-inside-1_11_954" fill="white">
<path fill-rule="evenodd" clip-rule="evenodd" d="M61.6637 39.2339C61.3727 38.3541 60.4364 38.0709 58.8806 38.3924C54.2612 39.3457 52.6069 38.6853 52.0636 38.2853C55.6543 32.8152 58.608 26.2035 60.2014 20.0344C60.9564 17.1122 61.3733 14.3984 61.4073 12.1865C61.4449 9.75837 61.0316 7.97442 60.1787 6.88457C56.7402 2.49089 51.6938 0.134176 45.585 0.0694072C41.3855 0.0222335 37.8373 1.09707 37.1494 1.39922C35.7008 1.03897 34.1217 0.817816 32.4026 0.789603C29.2499 0.738637 26.5249 1.49342 24.2686 3.03179C23.2885 2.66715 20.7557 1.79769 17.6585 1.29881C12.3034 0.436482 8.04825 1.08979 5.01154 3.24112C1.38811 5.80822 -0.284661 10.397 0.0394877 16.8796C0.148548 19.0608 1.39114 25.7703 3.35242 32.1959C5.93393 40.6531 8.73993 45.4408 11.6926 46.4255C12.0381 46.5408 12.4368 46.6215 12.876 46.6215C13.9532 46.6215 15.2736 46.136 16.6475 44.4843C18.9296 41.7388 21.0603 39.4382 21.8457 38.6023C23.0064 39.2254 24.2813 39.5732 25.5856 39.6081C25.5879 39.6422 25.5914 39.6764 25.5944 39.7103C25.3328 40.0207 25.1182 40.2927 24.9352 40.5249C24.0316 41.6719 23.8436 41.9107 20.9349 42.5097C20.1076 42.6803 17.9098 43.1332 17.8778 44.6736C17.8428 46.3565 20.4753 47.0634 20.7753 47.1383C21.8205 47.4 22.8274 47.529 23.7877 47.529C26.1234 47.5289 28.1785 46.7614 29.8211 45.2762C29.7705 51.2761 30.0207 57.1883 30.7411 58.9897C31.331 60.4642 32.7724 64.0682 37.3255 64.0679C37.9934 64.0679 38.7289 63.9902 39.5378 63.8169C44.2895 62.798 46.3528 60.6979 47.1512 56.0679C47.5783 53.5935 48.3114 47.6845 48.656 44.5151C49.3836 44.742 50.3204 44.8459 51.3331 44.8458C53.4451 44.8458 55.8821 44.3971 57.4105 43.6876C59.1272 42.8904 62.2255 40.9337 61.6637 39.2339ZM50.3479 17.8161C50.3321 18.7519 50.2034 19.6013 50.0668 20.4881C49.92 21.4417 49.768 22.4276 49.7298 23.6246C49.692 24.7894 49.8375 26.0004 49.9783 27.1714C50.2625 29.5368 50.5542 31.9721 49.4249 34.375C49.2494 34.0633 49.08 33.7232 48.9247 33.3466C48.7843 33.0064 48.4796 32.4599 48.0578 31.7034C46.416 28.7592 42.5714 21.8646 44.5395 19.0512C45.1256 18.2136 46.6133 17.3528 50.3479 17.8161ZM45.8212 1.96424C51.2946 2.08513 55.6241 4.13271 58.6896 8.0498C61.0407 11.0544 58.4518 24.7256 50.9569 36.5198C50.8829 36.4258 50.8075 36.3308 50.7295 36.2334C50.6984 36.1945 50.6667 36.1549 50.6347 36.1148C52.5714 32.9163 52.1927 29.7517 51.8556 26.9458C51.7171 25.7944 51.5864 24.7068 51.6196 23.6854C51.654 22.6024 51.7972 21.6739 51.9356 20.7759C52.1059 19.6692 52.279 18.5243 52.2312 17.1745C52.2668 17.033 52.2813 16.8657 52.2626 16.6671C52.1407 15.3726 50.6629 11.4991 47.6508 7.99261C46.0034 6.07503 43.6005 3.92885 40.3199 2.48133C41.731 2.18888 43.6608 1.91615 45.8212 1.96424ZM15.1936 43.2754C13.68 45.0953 12.6346 44.7466 12.2908 44.6321C10.0509 43.8849 7.45213 39.151 5.16079 31.644C3.17813 25.1484 2.01942 18.6167 1.9278 16.7852C1.63824 10.9927 3.04238 6.95559 6.10139 4.7862C11.0797 1.25576 19.2645 3.36887 22.5533 4.44067C22.506 4.48723 22.4569 4.53092 22.41 4.57824C17.0132 10.0287 17.1412 19.3409 17.1544 19.91C17.154 20.1296 17.1723 20.4406 17.1977 20.8683C17.2905 22.4345 17.4633 25.3495 17.0017 28.6508C16.5726 31.7184 17.5182 34.721 19.5956 36.8886C19.8107 37.1129 20.0352 37.3236 20.2672 37.5219C19.3423 38.5122 17.3327 40.7021 15.1936 43.2754ZM20.9608 35.5803C19.2864 33.8334 18.526 31.4032 18.8742 28.9126C19.3618 25.4252 19.1817 22.3881 19.0851 20.7564C19.0716 20.5281 19.0596 20.328 19.0525 20.1701C19.8409 19.4712 23.4945 17.5134 26.1 18.1104C27.2892 18.3828 28.0135 19.1924 28.3147 20.5851C29.8738 27.7951 28.5212 30.8003 27.4344 33.2151C27.2103 33.7126 26.9987 34.1828 26.8179 34.6695L26.6779 35.0455C26.3233 35.9964 25.9934 36.8804 25.7889 37.72C24.009 37.7145 22.2774 36.9543 20.9608 35.5803ZM21.234 45.304C20.7143 45.1742 20.2468 44.9486 19.9726 44.7616C20.2016 44.6538 20.6093 44.5072 21.3163 44.3616C24.7382 43.657 25.2665 43.16 26.4205 41.6947C26.6852 41.3589 26.9851 40.978 27.4004 40.5141C27.4005 40.5138 27.4007 40.5137 27.4008 40.5135C28.0196 39.8209 28.3025 39.9384 28.8156 40.1512C29.2315 40.3233 29.6365 40.8445 29.8008 41.4182C29.8785 41.6891 29.9658 42.2034 29.6802 42.6034C27.2695 45.9787 23.7568 45.9353 21.234 45.304ZM39.1415 61.9681C34.9555 62.865 33.4734 60.7292 32.4967 58.2875C31.8663 56.7111 31.5565 49.6027 31.7763 41.7529C31.7792 41.6484 31.7643 41.5475 31.7355 41.4527C31.7105 41.2696 31.672 41.0844 31.6186 40.898C31.2915 39.7558 30.4951 38.8004 29.5394 38.4043C29.1598 38.247 28.4628 37.9584 27.6253 38.1726C27.804 37.4367 28.1138 36.606 28.4494 35.7062L28.5904 35.3276C28.749 34.9009 28.9479 34.4589 29.1584 33.9911C30.2957 31.4643 31.8534 28.0037 30.1629 20.1854C29.5296 17.2572 27.4151 15.8272 24.2096 16.1593C22.2877 16.3581 20.5297 17.1335 19.6528 17.5781C19.4643 17.6737 19.2918 17.7659 19.1307 17.8559C19.3754 14.9053 20.3002 9.39145 23.7592 5.90287C25.9369 3.70648 28.8374 2.62179 32.3714 2.68019C39.3344 2.79425 43.7996 6.36763 46.3195 9.34533C48.4908 11.9114 49.6667 14.4961 50.136 15.89C46.6071 15.5313 44.207 16.228 42.9902 17.9674C40.3433 21.751 44.4383 29.0949 46.4064 32.6243C46.7673 33.2712 47.0788 33.8302 47.1768 34.0677C47.8177 35.6209 48.6474 36.6578 49.2532 37.4149C49.4389 37.6468 49.6191 37.8718 49.756 38.0682C48.6873 38.3764 46.7674 39.0883 46.9423 42.6469C46.8012 44.4327 45.7977 52.7929 45.288 55.7467C44.6152 59.6489 43.1792 61.1025 39.1415 61.9681ZM56.6143 41.9727C55.5214 42.4801 53.6924 42.8607 51.9548 42.9423C50.0357 43.0322 49.0589 42.7273 48.8291 42.5399C48.7211 40.3222 49.5467 40.0905 50.4202 39.8452C50.5575 39.8065 50.6915 39.769 50.8207 39.7238C50.9011 39.7892 50.9891 39.8541 51.0854 39.9177C52.6279 40.9358 55.3791 41.0456 59.263 40.244C59.2772 40.2409 59.2915 40.2382 59.3056 40.2353C58.7818 40.7251 57.8854 41.3825 56.6143 41.9727Z"/>
</mask>
<path d="M58.8806 38.3924L60.4975 46.2273L60.4991 46.2269L58.8806 38.3924ZM52.0636 38.2853L45.3757 33.8952L41.2154 40.2331L47.3208 44.7277L52.0636 38.2853ZM60.2014 20.0344L52.4557 18.0333L52.4556 18.0337L60.2014 20.0344ZM61.4073 12.1865L53.4083 12.0626L53.4083 12.0637L61.4073 12.1865ZM60.1787 6.88457L66.4787 1.95413L66.4787 1.95411L60.1787 6.88457ZM45.585 0.0694072L45.4952 8.0689L45.5002 8.06896L45.585 0.0694072ZM37.1494 1.39922L35.2187 9.16275L37.8676 9.8215L40.3667 8.72376L37.1494 1.39922ZM32.4026 0.789603L32.5339 -7.20932L32.5319 -7.20935L32.4026 0.789603ZM24.2686 3.03179L21.4788 10.5296L25.3567 11.9725L28.7753 9.64162L24.2686 3.03179ZM17.6585 1.29881L18.9307 -6.59939L18.9303 -6.59945L17.6585 1.29881ZM5.01154 3.24112L0.386927 -3.28674L0.386791 -3.28665L5.01154 3.24112ZM0.0394877 16.8796L8.02951 16.4801L8.02951 16.4801L0.0394877 16.8796ZM3.35242 32.1959L-4.2991 34.5314L-4.29906 34.5315L3.35242 32.1959ZM11.6926 46.4255L14.2244 38.8367L14.2236 38.8365L11.6926 46.4255ZM16.6475 44.4843L22.7978 49.6004L22.7997 49.5981L16.6475 44.4843ZM21.8457 38.6023L25.6297 31.5538L20.2199 28.6495L16.0155 33.1243L21.8457 38.6023ZM25.5856 39.6081L33.5679 39.076L33.0833 31.8058L25.7995 31.611L25.5856 39.6081ZM25.5944 39.7103L31.7107 44.867L33.8592 42.3187L33.5627 38.9989L25.5944 39.7103ZM24.9352 40.5249L31.2195 45.4754L31.2196 45.4753L24.9352 40.5249ZM20.9349 42.5097L19.3212 34.6741L19.3187 34.6746L20.9349 42.5097ZM17.8778 44.6736L25.8761 44.8401L25.8761 44.8398L17.8778 44.6736ZM20.7753 47.1383L22.718 39.3778L22.7137 39.3767L20.7753 47.1383ZM23.7877 47.529V55.529H23.7883L23.7877 47.529ZM29.8211 45.2762L37.8208 45.3438L37.9747 27.1191L24.4558 39.3421L29.8211 45.2762ZM30.7411 58.9897L23.313 61.96L23.3134 61.9612L30.7411 58.9897ZM37.3255 64.0679V56.0679H37.325L37.3255 64.0679ZM39.5378 63.8169L41.2144 71.6392L41.2151 71.6391L39.5378 63.8169ZM47.1512 56.0679L39.2678 54.7071L39.2675 54.7086L47.1512 56.0679ZM48.656 44.5151L51.0378 36.8779L41.7541 33.9826L40.7029 43.6503L48.656 44.5151ZM51.3331 44.8458V36.8458H51.3319L51.3331 44.8458ZM57.4105 43.6876L60.7787 50.944L60.78 50.9434L57.4105 43.6876ZM50.0668 20.4881L57.9737 21.7055L57.9737 21.7053L50.0668 20.4881ZM49.7298 23.6246L57.7256 23.8839L57.7257 23.8799L49.7298 23.6246ZM49.9783 27.1714L57.9211 26.2169L57.9211 26.2166L49.9783 27.1714ZM49.4249 34.375L42.4538 38.2999L50.066 51.8201L56.6652 37.7776L49.4249 34.375ZM48.9247 33.3466L41.5289 36.3966L41.5289 36.3967L48.9247 33.3466ZM48.0578 31.7034L55.0448 27.8071L55.0448 27.8071L48.0578 31.7034ZM44.5395 19.0512L37.9848 14.4646L37.9842 14.4655L44.5395 19.0512ZM58.6896 8.0498L64.9899 3.11971L64.9897 3.11935L58.6896 8.0498ZM50.9569 36.5198L44.6706 41.4678L51.6535 50.3395L57.7089 40.8105L50.9569 36.5198ZM50.7295 36.2334L44.4755 41.2221L44.48 41.2277L44.4845 41.2334L50.7295 36.2334ZM50.6347 36.1148L43.7914 31.9713L40.8993 36.7477L44.3855 41.1095L50.6347 36.1148ZM51.8556 26.9458L59.7985 25.9917L59.7984 25.9905L51.8556 26.9458ZM51.6196 23.6854L59.6154 23.9454L59.6156 23.9396L51.6196 23.6854ZM51.9356 20.7759L59.8423 21.994L59.8425 21.993L51.9356 20.7759ZM52.2312 17.1745L44.4735 15.2205L44.196 16.3222L44.2362 17.4575L52.2312 17.1745ZM52.2626 16.6671L60.2275 15.9187L60.2273 15.9167L52.2626 16.6671ZM47.6508 7.99261L53.7192 2.77971L53.7189 2.77937L47.6508 7.99261ZM40.3199 2.48133L38.6965 -5.35221L14.2371 -0.283138L37.0904 9.80052L40.3199 2.48133ZM12.2908 44.6321L9.75933 52.221L9.76203 52.2219L12.2908 44.6321ZM5.16079 31.644L12.8123 29.3085L12.8123 29.3085L5.16079 31.644ZM1.9278 16.7852L-6.06222 17.1846L-6.06221 17.1848L1.9278 16.7852ZM6.10139 4.7862L1.47361 -1.73941L1.47358 -1.73939L6.10139 4.7862ZM22.5533 4.44067L28.1643 10.143L37.5453 0.912342L25.0322 -3.16561L22.5533 4.44067ZM22.41 4.57824L16.7259 -1.05122L16.7252 -1.05054L22.41 4.57824ZM17.1544 19.91L25.1544 19.9266L25.1546 19.8256L25.1523 19.7246L17.1544 19.91ZM17.1977 20.8683L9.21166 21.3413L9.21169 21.3417L17.1977 20.8683ZM17.0017 28.6508L24.9246 29.7591L24.9246 29.7586L17.0017 28.6508ZM19.5956 36.8886L13.82 42.4241L13.821 42.4251L19.5956 36.8886ZM20.2672 37.5219L26.1141 42.982L31.8195 36.8724L25.4653 31.4408L20.2672 37.5219ZM18.8742 28.9126L26.7972 30.0204L26.7972 30.0202L18.8742 28.9126ZM19.0851 20.7564L11.099 21.2287L11.0991 21.2293L19.0851 20.7564ZM19.0525 20.1701L13.7456 14.1838L10.8884 16.7166L11.0606 20.531L19.0525 20.1701ZM26.1 18.1104L24.3132 25.9083L24.3136 25.9084L26.1 18.1104ZM28.3147 20.5851L36.134 18.8944L36.1339 18.8939L28.3147 20.5851ZM27.4344 33.2151L34.7289 36.4999L34.7296 36.4984L27.4344 33.2151ZM26.8179 34.6695L34.3151 37.4609L34.317 37.4559L26.8179 34.6695ZM26.6779 35.0455L34.1736 37.841L34.1751 37.8369L26.6779 35.0455ZM25.7889 37.72L25.7644 45.7199L32.0697 45.7393L33.5617 39.613L25.7889 37.72ZM19.9726 44.7616L16.5646 37.5238L3.9028 43.4857L15.4652 51.3709L19.9726 44.7616ZM21.3163 44.3616L19.703 36.526L19.7025 36.5261L21.3163 44.3616ZM26.4205 41.6947L20.1375 36.7426L20.1357 36.7449L26.4205 41.6947ZM27.4004 40.5141L33.3605 45.8506L34.0761 45.0513L34.5558 44.0919L27.4004 40.5141ZM27.4008 40.5135L33.0625 46.1656L33.2192 46.0087L33.3669 45.8433L27.4008 40.5135ZM28.8156 40.1512L25.7509 47.5409L25.7559 47.5429L28.8156 40.1512ZM29.8008 41.4182L22.1099 43.6205L22.1105 43.6228L29.8008 41.4182ZM29.6802 42.6034L36.1902 47.2531L36.1907 47.2524L29.6802 42.6034ZM32.4967 58.2875L25.0686 61.2579L25.0689 61.2587L32.4967 58.2875ZM31.7763 41.7529L39.7732 41.9768L39.7733 41.9734L31.7763 41.7529ZM31.7355 41.4527L23.8092 42.5363L23.8957 43.1688L24.0814 43.7796L31.7355 41.4527ZM31.6186 40.898L23.9276 43.1001L23.9278 43.1007L31.6186 40.898ZM29.5394 38.4043L32.6024 31.0139L32.6015 31.0135L29.5394 38.4043ZM27.6253 38.1726L19.8513 36.2847L16.7097 49.2217L29.6075 45.9231L27.6253 38.1726ZM28.4494 35.7062L35.9448 38.5024L35.947 38.4967L28.4494 35.7062ZM28.5904 35.3276L36.0879 38.1181L36.0887 38.1158L28.5904 35.3276ZM29.1584 33.9911L21.8634 30.7075L21.8632 30.7078L29.1584 33.9911ZM30.1629 20.1854L37.9822 18.4947L37.9821 18.4944L30.1629 20.1854ZM24.2096 16.1593L25.033 24.1168L25.0338 24.1167L24.2096 16.1593ZM19.6528 17.5781L23.2695 24.7139L23.2705 24.7134L19.6528 17.5781ZM19.1307 17.8559L11.1581 17.1948L9.91687 32.1634L23.0309 24.8407L19.1307 17.8559ZM23.7592 5.90287L29.4401 11.5356L29.4402 11.5355L23.7592 5.90287ZM32.3714 2.68019L32.2392 10.6791L32.2403 10.6791L32.3714 2.68019ZM46.3195 9.34533L52.4265 4.17767L52.4262 4.1774L46.3195 9.34533ZM50.136 15.89L49.3269 23.849L61.6795 25.1047L57.7178 13.3375L50.136 15.89ZM42.9902 17.9674L36.435 13.3815L36.435 13.3816L42.9902 17.9674ZM46.4064 32.6243L39.4193 36.5205L39.4198 36.5214L46.4064 32.6243ZM47.1768 34.0677L39.7813 37.1184L39.7815 37.119L47.1768 34.0677ZM49.2532 37.4149L43.007 42.4134L43.0078 42.4145L49.2532 37.4149ZM49.756 38.0682L51.9728 45.7549L62.7097 42.6585L56.3182 33.4924L49.756 38.0682ZM46.9423 42.6469L54.9174 43.2769L54.9578 42.7661L54.9327 42.2542L46.9423 42.6469ZM45.288 55.7467L37.4045 54.3864L37.4044 54.3873L45.288 55.7467ZM51.9548 42.9423L52.3294 50.9335L52.3302 50.9335L51.9548 42.9423ZM48.8291 42.5399L40.8386 42.929L41.0118 46.4869L43.7719 48.7386L48.8291 42.5399ZM50.4202 39.8452L52.5828 47.5473L52.5899 47.5454L50.4202 39.8452ZM50.8207 39.7238L55.8681 33.5171L52.3995 30.6964L48.1795 32.1724L50.8207 39.7238ZM51.0854 39.9177L55.4923 33.241L55.4914 33.2403L51.0854 39.9177ZM59.263 40.244L60.8801 48.0788L60.904 48.0739L60.9278 48.0688L59.263 40.244ZM59.3056 40.2353L64.7697 46.0785L85.465 26.7258L57.7043 32.3972L59.3056 40.2353ZM69.2591 36.7222C68.2471 33.6618 65.8663 31.5531 63.062 30.7051C60.7582 30.0085 58.6133 30.2786 57.262 30.5578L60.4991 46.2269C60.7037 46.1847 59.8049 46.4357 58.4309 46.0202C57.6513 45.7845 56.6975 45.3239 55.8171 44.4881C54.9246 43.641 54.3692 42.6559 54.0682 41.7456L69.2591 36.7222ZM57.2636 30.5575C56.375 30.7409 55.733 30.8249 55.2969 30.8602C55.0807 30.8777 54.9228 30.8827 54.8171 30.8829C54.7113 30.8832 54.6632 30.8787 54.6654 30.8789C54.6656 30.879 54.898 30.8995 55.284 31.0308C55.6786 31.165 56.219 31.4103 56.8064 31.8428L47.3208 44.7277C50.6997 47.2152 55.2854 47.3029 60.4975 46.2272L57.2636 30.5575ZM58.7514 42.6753C62.8066 36.4977 66.127 29.0822 67.9472 22.035L52.4556 18.0337C51.089 23.3247 48.5019 29.1328 45.3757 33.8952L58.7514 42.6753ZM67.9471 22.0354C68.8075 18.7052 69.3599 15.3373 69.4064 12.3094L53.4083 12.0637C53.3868 13.4595 53.1053 15.5191 52.4557 18.0333L67.9471 22.0354ZM69.4064 12.3105C69.4531 9.29261 69.0397 5.2265 66.4787 1.95413L53.8786 11.815C53.6319 11.4998 53.4905 11.2285 53.4162 11.0599C53.3429 10.8936 53.3263 10.8086 53.3335 10.8396C53.3404 10.8697 53.3637 10.9827 53.3827 11.1961C53.4015 11.4081 53.414 11.6941 53.4083 12.0626L69.4064 12.3105ZM66.4787 1.95411C61.387 -4.55198 53.9455 -7.8424 45.6698 -7.93014L45.5002 8.06896C49.4421 8.11075 52.0933 9.53376 53.8786 11.815L66.4787 1.95411ZM45.6749 -7.93009C40.3737 -7.98964 35.6945 -6.69945 33.9321 -5.92532L40.3667 8.72376C40.0525 8.86181 40.004 8.85345 40.3806 8.74503C40.6651 8.66312 41.0909 8.55398 41.6242 8.44697C42.7086 8.22938 44.0758 8.05296 45.4952 8.0689L45.6749 -7.93009ZM39.0801 -6.3643C37.0479 -6.86972 34.8651 -7.17106 32.5339 -7.20932L32.2713 8.78853C33.3782 8.80669 34.3538 8.94766 35.2187 9.16275L39.0801 -6.3643ZM32.5319 -7.20935C27.9803 -7.28293 23.578 -6.17993 19.7619 -3.57803L28.7753 9.64162C29.4717 9.16676 30.5195 8.76021 32.2733 8.78856L32.5319 -7.20935ZM27.0583 -4.46602C25.8003 -4.93412 22.7303 -5.98736 18.9307 -6.59939L16.3863 9.197C18.7811 9.58275 20.7768 10.2684 21.4788 10.5296L27.0583 -4.46602ZM18.9303 -6.59945C12.45 -7.64297 5.7811 -7.1082 0.386927 -3.28674L9.63615 9.76898C10.3154 9.28777 12.1568 8.51594 16.3866 9.19706L18.9303 -6.59945ZM0.386791 -3.28665C-6.39142 1.51553 -8.34322 9.42564 -7.95053 17.2792L8.02951 16.4801C7.7739 11.3683 9.16764 10.1009 9.63628 9.76888L0.386791 -3.28665ZM-7.95053 17.2791C-7.79414 20.407 -6.3435 27.8334 -4.2991 34.5314L11.0039 29.8605C10.1063 26.9196 9.36352 23.8784 8.83556 21.3258C8.57237 20.0533 8.36999 18.938 8.23076 18.0501C8.16121 17.6065 8.11064 17.2402 8.07648 16.9536C8.05953 16.8114 8.04778 16.6985 8.03998 16.6131C8.03613 16.5709 8.03351 16.5384 8.0318 16.5149C8.03007 16.4912 8.0295 16.48 8.02951 16.4801L-7.95053 17.2791ZM-4.29906 34.5315C-2.92066 39.0472 -1.35762 43.0204 0.481434 46.1581C2.16823 49.0361 4.87503 52.585 9.16162 54.0146L14.2236 38.8365C15.5575 39.2813 15.385 39.944 14.2852 38.0676C13.3377 36.4511 12.207 33.8018 11.0039 29.8603L-4.29906 34.5315ZM9.16079 54.0143C10.1937 54.359 11.4501 54.6215 12.876 54.6215V38.6215C13.4235 38.6215 13.8825 38.7227 14.2244 38.8367L9.16079 54.0143ZM12.876 54.6215C16.7504 54.6215 20.195 52.7292 22.7978 49.6004L10.4973 39.3682C10.3681 39.5235 10.505 39.3087 10.9872 39.0603C11.5022 38.795 12.1613 38.6215 12.876 38.6215V54.6215ZM22.7997 49.5981C24.9383 47.0252 26.9485 44.8545 27.676 44.0803L16.0155 33.1243C15.1721 34.0219 12.9209 36.4524 10.4953 39.3705L22.7997 49.5981ZM18.0617 45.6508C20.2839 46.8438 22.777 47.5358 25.3717 47.6052L25.7995 31.611C25.7856 31.6106 25.7289 31.607 25.6297 31.5538L18.0617 45.6508ZM17.6034 40.1402C17.6105 40.2472 17.6182 40.3344 17.622 40.3771C17.6239 40.3983 17.6258 40.4183 17.6263 40.4235C17.6271 40.4327 17.6268 40.4286 17.6261 40.4218L33.5627 38.9989C33.5606 38.9751 33.5587 38.9539 33.5579 38.9462C33.5568 38.9343 33.5571 38.9373 33.5575 38.9414C33.558 38.9471 33.5594 38.9629 33.5612 38.9846C33.563 39.0066 33.5654 39.0379 33.5679 39.076L17.6034 40.1402ZM19.4782 34.5537C19.1234 34.9745 18.8373 35.3377 18.6508 35.5745L31.2196 45.4753C31.399 45.2476 31.5422 45.0669 31.7107 44.867L19.4782 34.5537ZM18.6509 35.5744C18.5229 35.7369 18.4848 35.7845 18.4621 35.8119C18.4484 35.8284 18.5156 35.7455 18.6386 35.6207C18.7717 35.4855 18.9622 35.3089 19.2078 35.1228C19.4557 34.935 19.7034 34.7801 19.9358 34.6568C20.3673 34.4277 20.6381 34.3662 20.4848 34.4095C20.3292 34.4535 19.9998 34.5344 19.3212 34.6741L22.5485 50.3452C23.8267 50.082 25.7381 49.6913 27.4381 48.7888C29.6625 47.608 30.8848 45.9003 31.2195 45.4754L18.6509 35.5744ZM19.3187 34.6746C18.9965 34.7411 17.2578 35.0623 15.5419 35.9168C13.9858 36.6918 9.98968 39.2072 9.87955 44.5074L25.8761 44.8398C25.841 46.5285 25.1566 47.944 24.3368 48.9041C23.6236 49.7395 22.9149 50.1193 22.6743 50.2391C22.2721 50.4395 22.0459 50.4489 22.551 50.3447L19.3187 34.6746ZM9.87956 44.5071C9.76434 50.0411 14.0273 52.7641 15.2208 53.4486C16.8676 54.3931 18.4422 54.8013 18.8369 54.8999L22.7137 39.3767C22.8083 39.4003 22.9167 39.4177 23.181 39.5693C23.3241 39.6514 23.8933 39.9867 24.4877 40.7199C25.1634 41.5533 25.9148 42.9822 25.8761 44.8401L9.87956 44.5071ZM18.8326 54.8988C20.4494 55.3036 22.1099 55.529 23.7877 55.529V39.529C23.545 39.529 23.1917 39.4963 22.718 39.3778L18.8326 54.8988ZM23.7883 55.529C27.9881 55.5288 31.9879 54.1023 35.1864 51.2103L24.4558 39.3421C24.3703 39.4194 24.3134 39.4472 24.2658 39.465C24.2133 39.4846 24.0699 39.529 23.7872 39.529L23.7883 55.529ZM21.8214 45.2087C21.7951 48.3176 21.8455 51.4892 22.0062 54.1836C22.0862 55.5253 22.1988 56.8424 22.3609 58.0208C22.4994 59.0279 22.7497 60.5515 23.313 61.96L38.1692 56.0193C38.3723 56.5272 38.3211 56.6362 38.2117 55.8406C38.1258 55.2164 38.0441 54.3427 37.9778 53.2312C37.8459 51.0191 37.7964 48.2347 37.8208 45.3438L21.8214 45.2087ZM23.3134 61.9612C23.6048 62.6897 24.5633 65.2306 26.6726 67.5123C29.0386 70.0718 32.6046 72.0682 37.3261 72.0679L37.325 56.0679C37.2869 56.0679 37.3262 56.0645 37.4253 56.0856C37.5259 56.107 37.6563 56.1469 37.8016 56.2138C38.1075 56.3545 38.3159 56.537 38.4216 56.6514C38.5105 56.7475 38.5083 56.7743 38.4457 56.6562C38.3781 56.5289 38.3155 56.385 38.1687 56.0182L23.3134 61.9612ZM37.3255 72.0679C38.6142 72.0679 39.9134 71.9181 41.2144 71.6392L37.8613 55.9945C37.5444 56.0624 37.3726 56.0679 37.3255 56.0679V72.0679ZM41.2151 71.6391C44.3801 70.9604 47.7942 69.6914 50.5336 66.9033C53.3043 64.0832 54.4823 60.6318 55.0348 57.4273L39.2675 54.7086C39.0217 56.1341 38.7688 56.0477 39.1204 55.6899C39.4406 55.364 39.4472 55.6544 37.8606 55.9947L41.2151 71.6391ZM55.0346 57.4288C55.5079 54.6868 56.2632 48.5614 56.6091 45.3799L40.7029 43.6503C40.3596 46.8077 39.6487 52.5003 39.2678 54.7071L55.0346 57.4288ZM46.2743 52.1523C48.0634 52.7103 49.8872 52.846 51.3343 52.8458L51.3319 36.8458C51.0906 36.8458 50.9272 36.8329 50.8428 36.8228C50.8034 36.8181 50.7984 36.8159 50.8245 36.8212C50.8492 36.8262 50.9234 36.8422 51.0378 36.8779L46.2743 52.1523ZM51.3331 52.8458C54.2492 52.8458 57.9114 52.2749 60.7787 50.944L54.0422 36.4313C54.0679 36.4194 53.7634 36.5476 53.1071 36.6715C52.4978 36.7865 51.8578 36.8458 51.3331 36.8458V52.8458ZM60.78 50.9434C62.0681 50.3452 63.9835 49.2814 65.6493 47.8288C66.4665 47.1162 67.6221 45.9694 68.4936 44.3786C69.4062 42.7129 70.3166 39.9214 69.2595 36.7232L54.0679 41.7446C53.2917 39.3963 54.0255 37.4868 54.4615 36.6909C54.8565 35.9701 55.2355 35.6809 55.1338 35.7696C54.9617 35.9196 54.4696 36.2328 54.0409 36.4319L60.78 50.9434ZM42.349 17.6813C42.3437 17.9983 42.3034 18.3392 42.16 19.2708L57.9737 21.7053C58.1033 20.8634 58.3206 19.5054 58.3468 17.951L42.349 17.6813ZM42.16 19.2707C42.0149 20.2134 41.7893 21.6338 41.7339 23.3692L57.7257 23.8799C57.7467 23.2215 57.8252 22.67 57.9737 21.7055L42.16 19.2707ZM41.734 23.3653C41.673 25.2457 41.9088 27.0725 42.0354 28.1262L57.9211 26.2166C57.7662 24.9283 57.711 24.3331 57.7256 23.8839L41.734 23.3653ZM42.0354 28.1259C42.1891 29.4049 42.2487 30.0222 42.2346 30.542C42.2288 30.7548 42.21 30.8697 42.1994 30.9199C42.1904 30.9627 42.1848 30.972 42.1846 30.9724L56.6652 37.7776C58.9126 32.9956 58.1686 28.2761 57.9211 26.2169L42.0354 28.1259ZM56.396 30.4502C56.3628 30.3913 56.3396 30.3431 56.3204 30.2966L41.5289 36.3967C41.8203 37.1034 42.136 37.7353 42.4538 38.2999L56.396 30.4502ZM56.3204 30.2966C55.9513 29.4016 55.3284 28.3157 55.0448 27.8071L41.0707 35.5997C41.293 35.9984 41.4365 36.2562 41.543 36.4552C41.593 36.5486 41.615 36.5924 41.6195 36.6015C41.6279 36.6185 41.5878 36.5396 41.5289 36.3966L56.3204 30.2966ZM55.0448 27.8071C54.1898 26.2739 53.1108 24.3119 52.4314 22.5083C52.0883 21.5975 51.9991 21.1122 51.988 21.0012C51.9636 20.7586 52.1866 22.0761 51.0948 23.6368L37.9842 14.4655C35.9083 17.433 35.8738 20.6673 36.0681 22.6007C36.2756 24.6658 36.8811 26.6157 37.4584 28.1483C38.6197 31.2313 40.2839 34.1887 41.0707 35.5997L55.0448 27.8071ZM51.0941 23.6377C50.6848 24.2227 50.1939 24.6959 49.6785 25.0476C49.1732 25.3924 48.7352 25.5591 48.4717 25.6348C48.0062 25.7686 48.147 25.6044 49.3628 25.7553L51.333 9.87703C46.5632 9.28519 41.1424 9.95219 37.9848 14.4646L51.0941 23.6377ZM45.6445 9.96229C48.9941 10.0363 50.9631 11.1576 52.3896 12.9803L64.9897 3.11935C60.285 -2.89213 53.5951 -5.86601 45.9978 -6.03381L45.6445 9.96229ZM52.3893 12.9799C51.9815 12.4588 51.7638 12.0008 51.6556 11.7333C51.5455 11.4608 51.5079 11.2841 51.5011 11.2506C51.4918 11.2049 51.5368 11.4226 51.5282 11.9836C51.5109 13.1021 51.2947 14.8421 50.7452 17.0855C49.6517 21.5498 47.4622 27.1032 44.2049 32.2291L57.7089 40.8105C61.9464 34.1422 64.7988 26.9629 66.2858 20.8919C67.0265 17.8677 67.4852 14.8893 67.5263 12.2309C67.5468 10.9034 67.4669 9.46793 67.1784 8.05339C66.908 6.72757 66.3411 4.84645 64.9899 3.11971L52.3893 12.9799ZM57.2432 31.5719C57.1551 31.4599 57.0659 31.3476 56.9746 31.2335L44.4845 41.2334C44.5491 41.3141 44.6107 41.3917 44.6706 41.4678L57.2432 31.5719ZM56.9836 31.2448C56.9496 31.2022 56.9094 31.1519 56.884 31.1201L44.3855 41.1095C44.4241 41.1578 44.4472 41.1867 44.4755 41.2221L56.9836 31.2448ZM57.478 40.2584C61.0045 34.4343 60.1147 28.6237 59.7985 25.9917L43.9127 27.8999C44.2707 30.8796 44.1384 31.3982 43.7914 31.9713L57.478 40.2584ZM59.7984 25.9905C59.6428 24.697 59.6057 24.2428 59.6154 23.9454L43.6238 23.4253C43.5671 25.1709 43.7915 26.8917 43.9129 27.9011L59.7984 25.9905ZM59.6156 23.9396C59.6327 23.402 59.7 22.9176 59.8423 21.994L44.0288 19.5579C43.8945 20.4302 43.6754 21.8027 43.6237 23.4312L59.6156 23.9396ZM59.8425 21.993C60.0107 20.8998 60.3036 19.0789 60.2262 16.8915L44.2362 17.4575C44.2543 17.9698 44.2011 18.4387 44.0287 19.5589L59.8425 21.993ZM59.9889 19.1285C60.2693 18.0152 60.3222 16.9268 60.2275 15.9187L44.2977 17.4155C44.2403 16.8046 44.2644 16.0508 44.4735 15.2205L59.9889 19.1285ZM60.2273 15.9167C60.0306 13.8288 59.1292 11.5035 58.2378 9.66658C57.2194 7.56818 55.7346 5.12591 53.7192 2.77971L41.5824 13.2055C42.5791 14.3658 43.3392 15.6135 43.8433 16.6522C44.0929 17.1665 44.2509 17.5704 44.3352 17.8199C44.4573 18.1813 44.352 17.992 44.2979 17.4175L60.2273 15.9167ZM53.7189 2.77937C51.5083 0.206247 48.1868 -2.7917 43.5494 -4.83786L37.0904 9.80052C39.0143 10.6494 40.4984 11.9438 41.5827 13.2059L53.7189 2.77937ZM41.9434 10.3149C42.9283 10.1107 44.2364 9.93095 45.6432 9.96226L45.9992 -6.03378C43.0851 -6.09864 40.5337 -5.73298 38.6965 -5.35221L41.9434 10.3149ZM9.04298 38.1598C8.9996 38.2119 9.70732 37.3406 11.3246 36.9277C12.121 36.7244 12.9105 36.6952 13.628 36.7811C14.3142 36.8633 14.8334 37.0468 14.8197 37.0423L9.76203 52.2219C10.3868 52.43 12.5322 53.1326 15.2824 52.4305C17.8867 51.7657 19.874 50.1588 21.3443 48.391L9.04298 38.1598ZM14.8224 37.0432C16.1217 37.4766 16.6555 38.1651 16.5232 38.0168C16.4618 37.948 16.1875 37.6057 15.7579 36.8231C14.9022 35.2645 13.8689 32.7702 12.8123 29.3085L-2.49072 33.9794C-1.25598 38.0247 0.155777 41.6509 1.73233 44.5227C2.51882 45.9554 3.45741 47.4058 4.58488 48.6694C5.64144 49.8535 7.34009 51.4139 9.75933 52.221L14.8224 37.0432ZM12.8123 29.3085C11.9066 26.3411 11.1799 23.3318 10.6717 20.8566C10.4184 19.6229 10.2263 18.5557 10.096 17.7255C10.0308 17.3102 9.98439 16.9753 9.95386 16.7228C9.92078 16.4492 9.91615 16.3522 9.91781 16.3855L-6.06221 17.1848C-5.92384 19.9511 -4.56221 27.1928 -2.49071 33.9795L12.8123 29.3085ZM9.91782 16.3857C9.807 14.1689 10.054 12.8052 10.3149 12.0552C10.4381 11.7009 10.5526 11.5163 10.6104 11.4359C10.6629 11.363 10.6982 11.3338 10.7292 11.3118L1.47358 -1.73939C-4.85307 2.74733 -6.40965 10.2346 -6.06222 17.1846L9.91782 16.3857ZM10.7292 11.3118C10.9843 11.1309 12.0251 10.6975 14.3884 10.8671C16.5575 11.0227 18.7344 11.6102 20.0745 12.0469L25.0322 -3.16561C23.0834 -3.80069 19.5235 -4.80562 15.5334 -5.0919C11.7375 -5.36423 6.1967 -5.08889 1.47361 -1.73941L10.7292 11.3118ZM16.9424 -1.2617C16.977 -1.29576 17.0026 -1.32009 17.0106 -1.3277C17.0135 -1.3305 17.0218 -1.3383 16.997 -1.31498C16.981 -1.29988 16.9441 -1.26509 16.9008 -1.22351C16.8562 -1.18056 16.7956 -1.12164 16.7259 -1.05122L28.0941 10.2077C28.0478 10.2545 28.011 10.2902 27.9902 10.3102C27.9708 10.3288 27.9579 10.3409 27.9659 10.3333C27.9676 10.3317 27.9694 10.3301 27.9728 10.3269C27.9758 10.3241 27.9802 10.3199 27.9849 10.3155C27.9942 10.3067 28.0083 10.2934 28.0245 10.278C28.0565 10.2476 28.106 10.2004 28.1643 10.143L16.9424 -1.2617ZM16.7252 -1.05054C12.4725 3.24444 10.7067 8.66978 9.92122 12.445C9.1105 16.3415 9.14223 19.4758 9.15659 20.0955L25.1523 19.7246C25.1535 19.7751 25.1146 17.9688 25.5857 15.7042C26.0821 13.3185 26.9507 11.3625 28.0948 10.207L16.7252 -1.05054ZM9.15446 19.8934C9.15337 20.4198 9.19336 21.0321 9.21166 21.3413L25.1837 20.3954C25.1703 20.1688 25.1622 20.0306 25.157 19.9235C25.1546 19.8746 25.1538 19.8515 25.1537 19.8463C25.1535 19.8398 25.1545 19.8704 25.1544 19.9266L9.15446 19.8934ZM9.21169 21.3417C9.30166 22.8596 9.4218 25.0896 9.07877 27.543L24.9246 29.7586C25.5047 25.6095 25.2793 22.0093 25.1837 20.395L9.21169 21.3417ZM9.07884 27.5425C8.32275 32.9476 9.98586 38.4237 13.82 42.4241L25.3713 31.3531C25.0505 31.0184 24.8224 30.4893 24.9246 29.7591L9.07884 27.5425ZM13.821 42.4251C14.229 42.8507 14.6472 43.2424 15.069 43.6029L25.4653 31.4408C25.4232 31.4048 25.3924 31.3751 25.3703 31.3521L13.821 42.4251ZM14.4202 32.0618C13.4374 33.1142 11.3149 35.4266 9.04153 38.1615L21.3457 48.3893C23.3505 45.9775 25.2473 43.9103 26.1141 42.982L14.4202 32.0618ZM26.7362 30.0446C26.7505 30.0595 26.7643 30.0775 26.7755 30.0966C26.7865 30.1153 26.7918 30.1295 26.7939 30.1362C26.796 30.1427 26.7937 30.1383 26.7923 30.1209C26.791 30.1037 26.7902 30.0704 26.7972 30.0204L10.9513 27.8047C10.2793 32.6109 11.7394 37.5209 15.1854 41.116L26.7362 30.0446ZM26.7972 30.0202C27.4027 25.689 27.171 21.9714 27.0711 20.2835L11.0991 21.2293C11.1924 22.8047 11.3208 25.1615 10.9513 27.805L26.7972 30.0202ZM27.0711 20.2841C27.056 20.0286 27.0483 19.8974 27.0443 19.8093L11.0606 20.531C11.0709 20.7587 11.0871 21.0277 11.099 21.2287L27.0711 20.2841ZM24.3594 26.1565C24.2726 26.2335 24.199 26.2944 24.1439 26.3387C24.0879 26.3836 24.0416 26.4189 24.0072 26.4445C23.9405 26.4941 23.8978 26.5226 23.8857 26.5306C23.8639 26.545 23.8957 26.5231 23.9833 26.4747C24.0667 26.4288 24.1771 26.3719 24.3071 26.3116C24.4367 26.2515 24.5723 26.1943 24.7066 26.1439C24.8417 26.0932 24.9604 26.055 25.0579 26.0281C25.1569 26.0008 25.2117 25.9914 25.2221 25.9898C25.2346 25.9879 25.1674 25.9996 25.0304 25.9987C24.8942 25.9978 24.6445 25.9842 24.3132 25.9083L27.8868 10.3125C24.262 9.48192 20.8785 10.4907 19.0831 11.1647C17.2569 11.8503 15.1507 12.9381 13.7456 14.1838L24.3594 26.1565ZM24.3136 25.9084C23.4889 25.7195 22.4404 25.2253 21.5789 24.2625C20.783 23.3731 20.5517 22.5358 20.4956 22.2764L36.1339 18.8939C35.7766 17.2417 35.0325 15.3032 33.5019 13.5928C31.9055 11.809 29.9003 10.7738 27.8864 10.3124L24.3136 25.9084ZM20.4955 22.2759C21.1253 25.1889 21.0618 26.7639 20.9471 27.5673C20.839 28.3239 20.6486 28.8 20.1392 29.9318L34.7296 36.4984C35.307 35.2154 36.3362 32.9816 36.7864 29.8294C37.2299 26.724 37.0632 23.1914 36.134 18.8944L20.4955 22.2759ZM20.1398 29.9303C19.9345 30.3863 19.6093 31.1015 19.3189 31.883L34.317 37.4559C34.3882 37.2642 34.4862 37.039 34.7289 36.4999L20.1398 29.9303ZM19.3207 31.878L19.1807 32.2541L34.1751 37.8369L34.3151 37.4609L19.3207 31.878ZM19.1822 32.25C18.8698 33.0877 18.3542 34.4387 18.0161 35.827L33.5617 39.613C33.6326 39.3221 33.7767 38.9051 34.1736 37.841L19.1822 32.25ZM25.8134 29.72C26.3358 29.7216 26.6428 29.9471 26.7369 30.0453L15.1847 41.1154C17.912 43.9615 21.6823 45.7074 25.7644 45.7199L25.8134 29.72ZM23.1732 37.5426C23.408 37.6013 23.5987 37.672 23.7589 37.7431C23.9008 37.8061 24.1512 37.928 24.48 38.1522L15.4652 51.3709C16.5531 52.1129 17.8966 52.7161 19.2948 53.0654L23.1732 37.5426ZM23.3806 51.9994C23.1092 52.1272 22.9179 52.1909 22.8482 52.2126C22.7763 52.235 22.7942 52.2251 22.9302 52.1971L19.7025 36.5261C18.5935 36.7545 17.537 37.0659 16.5646 37.5238L23.3806 51.9994ZM22.9297 52.1972C24.7012 51.8325 26.7616 51.3417 28.6369 50.2883C30.8288 49.0571 32.0755 47.4443 32.7054 46.6445L20.1357 36.7449C20.0074 36.9078 19.9442 36.985 19.908 37.0278C19.8766 37.0649 19.9048 37.0289 19.9778 36.9564C20.0565 36.8781 20.1761 36.7682 20.3329 36.648C20.4914 36.5265 20.6509 36.4227 20.8008 36.3385C21.0905 36.1758 21.2342 36.1486 21.046 36.2064C20.9548 36.2344 20.8053 36.2766 20.5765 36.3323C20.3483 36.3879 20.0628 36.4519 19.703 36.526L22.9297 52.1972ZM32.7036 46.6468C32.9617 46.3193 33.1272 46.1112 33.3605 45.8506L21.4403 35.1777C20.843 35.8448 20.4087 36.3984 20.1375 36.7426L32.7036 46.6468ZM34.5558 44.0919C34.302 44.5995 33.9962 45.0759 33.6454 45.5141C33.3334 45.9037 33.0339 46.1942 33.0625 46.1656L21.7392 34.8615C21.7676 34.833 21.468 35.1236 21.1559 35.5135C20.8048 35.9519 20.499 36.4285 20.245 36.9364L34.5558 44.0919ZM33.3669 45.8433C33.3493 45.863 31.9638 47.525 29.2904 47.9108C27.9721 48.101 26.911 47.8919 26.323 47.7285C25.8672 47.6018 25.502 47.4376 25.7509 47.5409L31.8803 32.7615C31.8727 32.7583 31.2796 32.4996 30.6072 32.3127C29.8024 32.0891 28.5358 31.854 27.0052 32.0748C23.9075 32.5218 22.0711 34.4715 21.4348 35.1838L33.3669 45.8433ZM25.7559 47.5429C24.2993 46.94 23.4685 46.0354 23.0866 45.5442C22.6506 44.9834 22.3166 44.3424 22.1099 43.6205L37.4917 39.2158C37.1207 37.9203 36.502 36.7319 35.7185 35.724C34.9891 34.7858 33.7478 33.5345 31.8753 32.7594L25.7559 47.5429ZM22.1105 43.6228C22.0174 43.2977 21.8616 42.6578 21.8783 41.8061C21.8953 40.9318 22.1093 39.4394 23.1697 37.9545L36.1907 47.2524C38.7666 43.6451 37.6733 39.8495 37.491 39.2136L22.1105 43.6228ZM23.1702 37.9538C23.1394 37.9968 23.1364 37.9935 23.1687 37.9623C23.2016 37.9305 23.2566 37.8837 23.3338 37.8335C23.4106 37.7835 23.4923 37.7411 23.5729 37.708C23.6524 37.6754 23.7185 37.6567 23.7639 37.6467C23.8497 37.6276 23.8454 37.6422 23.7229 37.6354C23.5987 37.6285 23.4141 37.6029 23.176 37.5433L19.2919 53.0647C23.1656 54.0341 30.9653 54.5686 36.1902 47.2531L23.1702 37.9538ZM37.4654 54.1457C37.1326 54.217 37.2502 54.1412 37.67 54.2046C38.1477 54.2768 38.7305 54.487 39.2716 54.8743C39.772 55.2324 40.0183 55.5851 40.0805 55.6815C40.1278 55.7548 40.0724 55.6861 39.9245 55.3163L25.0689 61.2587C25.6856 62.8003 27.0013 65.7681 29.9596 67.8853C33.2962 70.2733 37.1894 70.568 40.8176 69.7906L37.4654 54.1457ZM39.9248 55.3171C40.217 56.0479 40.1576 56.3143 40.0366 55.2442C39.9504 54.4814 39.8699 53.398 39.8101 52.0245C39.6911 49.2936 39.6676 45.7482 39.7732 41.9768L23.7795 41.529C23.6653 45.6074 23.6867 49.5411 23.8253 52.7209C23.8942 54.3028 23.9956 55.7827 24.1379 57.0414C24.2454 57.9928 24.4611 59.7389 25.0686 61.2579L39.9248 55.3171ZM39.7733 41.9734C39.8012 40.9626 39.6561 40.0023 39.3897 39.1259L24.0814 43.7796C23.8726 43.0928 23.7573 42.3342 23.7794 41.5324L39.7733 41.9734ZM39.6618 40.3692C39.5855 39.811 39.4687 39.2517 39.3093 38.6953L23.9278 43.1007C23.8752 42.9172 23.8355 42.7283 23.8092 42.5363L39.6618 40.3692ZM39.3095 38.6959C38.4239 35.6029 36.1636 32.4899 32.6024 31.0139L26.4765 45.7948C25.5966 45.4301 25.0191 44.9128 24.6701 44.4943C24.3134 44.0664 24.0693 43.595 23.9276 43.1001L39.3095 38.6959ZM32.6015 31.0135C32.1694 30.8345 29.2632 29.4962 25.6431 30.422L29.6075 45.9231C27.6624 46.4206 26.1501 45.6595 26.4774 45.7951L32.6015 31.0135ZM35.3994 40.0604C35.4425 39.8828 35.5592 39.536 35.9448 38.5024L20.954 32.9099C20.6683 33.6759 20.1655 34.9907 19.8513 36.2847L35.3994 40.0604ZM35.947 38.4967L36.0879 38.1181L21.0928 32.537L20.9519 32.9156L35.947 38.4967ZM36.0887 38.1158C36.1368 37.9865 36.2185 37.7968 36.4536 37.2744L21.8632 30.7078C21.6773 31.1209 21.3612 31.8153 21.092 32.5393L36.0887 38.1158ZM36.4535 37.2747C37.0618 35.9233 38.1411 33.5718 38.6344 30.2468C39.1228 26.9555 38.9886 23.1491 37.9822 18.4947L22.3436 21.8762C23.0277 25.0399 22.9599 26.8731 22.8077 27.8983C22.6606 28.89 22.3924 29.5322 21.8634 30.7075L36.4535 37.2747ZM37.9821 18.4944C37.3232 15.4475 35.6807 12.3844 32.6324 10.3229C29.6586 8.31177 26.3015 7.89979 23.3853 8.20185L25.0338 24.1167C25.3232 24.0867 24.6261 24.2237 23.6692 23.5766C22.6378 22.8791 22.3693 21.9951 22.3436 21.8765L37.9821 18.4944ZM23.3862 8.20177C20.0378 8.54823 17.2578 9.82298 16.0352 10.4428L23.2705 24.7134C23.4719 24.6113 23.794 24.4623 24.1652 24.3333C24.5512 24.1992 24.8506 24.1357 25.033 24.1168L23.3862 8.20177ZM16.0361 10.4423C15.7498 10.5875 15.4828 10.7301 15.2305 10.871L23.0309 24.8407C23.1008 24.8017 23.1788 24.7599 23.2695 24.7139L16.0361 10.4423ZM27.1034 18.517C27.1949 17.4135 27.4095 15.9332 27.8636 14.505C28.3311 13.0345 28.9091 12.0712 29.4401 11.5356L18.0783 0.270146C12.4739 5.92246 11.4223 14.0085 11.1581 17.1948L27.1034 18.517ZM29.4402 11.5355C29.8581 11.114 30.5423 10.6511 32.2392 10.6791L32.5036 -5.31872C27.1326 -5.40747 22.0158 -3.70105 18.0783 0.270192L29.4402 11.5355ZM32.2403 10.6791C36.1898 10.7438 38.6562 12.674 40.2127 14.5133L52.4262 4.1774C48.9429 0.0612951 42.4791 -5.1553 32.5024 -5.31874L32.2403 10.6791ZM40.2125 14.513C41.6429 16.2034 42.3601 17.8662 42.5542 18.4426L57.7178 13.3375C56.9733 11.1259 55.3388 7.61935 52.4265 4.17767L40.2125 14.513ZM50.9451 7.93106C46.5557 7.48485 40.2206 7.97015 36.435 13.3815L49.5453 22.5532C49.2711 22.9452 48.936 23.2625 48.5966 23.4913C48.2699 23.7117 48.0169 23.7984 47.9284 23.8241C47.8471 23.8478 47.9059 23.82 48.1554 23.8058C48.4033 23.7917 48.7864 23.7941 49.3269 23.849L50.9451 7.93106ZM36.435 13.3816C34.4729 16.1863 34.0558 19.2443 34.135 21.6234C34.2134 23.9817 34.7881 26.1932 35.3967 27.9759C36.604 31.512 38.4802 34.8365 39.4193 36.5205L53.3935 28.728C52.3645 26.8827 51.2092 24.7705 50.5386 22.8064C50.2083 21.839 50.1325 21.2845 50.1261 21.0914C50.1204 20.919 50.184 21.6402 49.5454 22.5531L36.435 13.3816ZM39.4198 36.5214C39.6081 36.859 39.7475 37.1093 39.8519 37.3025C39.8759 37.3469 39.8946 37.3819 39.9087 37.4087C39.9157 37.4219 39.921 37.432 39.9248 37.4394C39.9266 37.443 39.9281 37.4458 39.929 37.4477C39.93 37.4496 39.9305 37.4505 39.9305 37.4504C39.9304 37.4504 39.9298 37.4492 39.9287 37.4469C39.9276 37.4447 39.9258 37.4411 39.9234 37.4362C39.9188 37.427 39.9108 37.4105 39.9001 37.388C39.883 37.3519 39.8378 37.2553 39.7813 37.1184L54.5723 31.017C54.2411 30.2143 53.5795 29.0616 53.393 28.7272L39.4198 36.5214ZM39.7815 37.119C40.8867 39.7975 42.344 41.5849 43.007 42.4134L55.4994 32.4164C54.9507 31.7308 54.7486 31.4444 54.5721 31.0164L39.7815 37.119ZM43.0078 42.4145C43.0562 42.4748 43.0936 42.5216 43.1291 42.5662C43.1637 42.6097 43.1888 42.6416 43.2079 42.6661C43.227 42.6907 43.2347 42.701 43.2343 42.7005C43.2343 42.7005 43.2192 42.6803 43.1939 42.644L56.3182 33.4924C55.9976 33.0326 55.6312 32.581 55.4986 32.4154L43.0078 42.4145ZM47.5392 30.3815C46.7043 30.6223 44.0888 31.3812 41.9208 33.8044C39.5779 36.4229 38.7901 39.7455 38.9519 43.0396L54.9327 42.2542C54.9242 42.083 54.9599 42.309 54.8186 42.7784C54.6655 43.2873 54.3583 43.899 53.8448 44.473C52.8601 45.5735 51.739 45.8224 51.9728 45.7549L47.5392 30.3815ZM38.9671 42.0169C38.844 43.5756 37.8695 51.6913 37.4045 54.3864L53.1715 57.1069C53.7258 53.8945 54.7584 45.2898 54.9174 43.2769L38.9671 42.0169ZM37.4044 54.3873C37.3529 54.6859 37.3061 54.8899 37.2707 55.0217C37.2355 55.1526 37.218 55.1877 37.2317 55.1549C37.247 55.1185 37.2957 55.0104 37.3927 54.8603C37.4922 54.7063 37.6233 54.5379 37.7855 54.3737C37.9472 54.21 38.1049 54.0858 38.2359 53.9982C38.3628 53.9133 38.4423 53.8777 38.4434 53.8772C38.4437 53.877 38.4256 53.8851 38.3856 53.8999C38.3454 53.9147 38.2859 53.9352 38.2037 53.9602C38.0361 54.0114 37.7969 54.0746 37.4644 54.1459L40.8185 69.7904C43.366 69.2442 46.5796 68.2381 49.1676 65.6186C51.8052 62.9488 52.7254 59.6941 53.1717 57.1061L37.4044 54.3873ZM53.2455 34.7166C53.3786 34.6548 53.4141 34.6507 53.3187 34.68C53.2342 34.7059 53.0923 34.7442 52.8965 34.7849C52.4933 34.8688 52.0211 34.9303 51.5795 34.9511L52.3302 50.9335C54.6818 50.823 57.63 50.3213 59.983 49.2289L53.2455 34.7166ZM51.5803 34.951C51.085 34.9743 50.9542 34.9332 51.1176 34.9614C51.1947 34.9747 51.4294 35.0191 51.7735 35.1388C51.9468 35.1991 52.2048 35.2982 52.515 35.4526C52.7896 35.5892 53.306 35.8677 53.8863 36.3411L43.7719 48.7386C44.9 49.659 46.0343 50.0827 46.5156 50.2502C47.1674 50.477 47.8094 50.6271 48.3993 50.7288C49.5883 50.9338 50.9055 51.0002 52.3294 50.9335L51.5803 34.951ZM56.8196 42.1507C56.8001 41.7497 57.0236 43.6114 55.425 45.5471C53.8882 47.408 51.7547 47.7799 52.5828 47.5473L48.2577 32.143C48.2122 32.1558 45.2292 32.7662 43.0882 35.3587C40.8854 38.026 40.7501 41.1124 40.8386 42.929L56.8196 42.1507ZM52.5899 47.5454C52.6683 47.5233 53.0544 47.4178 53.4619 47.2753L48.1795 32.1724C48.2281 32.1554 48.2674 32.1425 48.2945 32.1339C48.3215 32.1253 48.3393 32.12 48.3445 32.1184C48.3492 32.117 48.3462 32.118 48.3294 32.1228C48.3213 32.1251 48.3113 32.1279 48.2979 32.1317C48.2835 32.1358 48.2701 32.1395 48.2506 32.145L52.5899 47.5454ZM45.7733 45.9306C46.0593 46.1632 46.3614 46.3852 46.6794 46.5951L55.4914 33.2403C55.6168 33.3231 55.7428 33.4152 55.8681 33.5171L45.7733 45.9306ZM46.6784 46.5944C49.1195 48.2056 51.8128 48.6705 53.9772 48.7569C56.21 48.846 58.5573 48.5583 60.8801 48.0788L57.6458 32.4091C56.0847 32.7313 55.1145 32.7895 54.6151 32.7696C54.3823 32.7603 54.3649 32.7378 54.5038 32.7744C54.6464 32.8119 55.021 32.9299 55.4923 33.241L46.6784 46.5944ZM60.9278 48.0688C60.9051 48.0736 60.8868 48.0774 60.8746 48.0799C60.8629 48.0823 60.8544 48.084 60.8533 48.0842C60.8527 48.0843 60.8525 48.0844 60.8546 48.084C60.856 48.0837 60.8598 48.0829 60.8639 48.0821C60.8721 48.0805 60.8878 48.0773 60.9069 48.0734L57.7043 32.3972C57.7163 32.3948 57.7249 32.393 57.7261 32.3928C57.7266 32.3927 57.7269 32.3927 57.7248 32.3931C57.7233 32.3934 57.7195 32.3941 57.7154 32.3949C57.7011 32.3978 57.6549 32.407 57.5982 32.4191L60.9278 48.0688ZM53.8414 34.3921C53.9246 34.3144 53.9166 34.3338 53.7988 34.4125C53.6886 34.486 53.5049 34.5961 53.2452 34.7167L59.9834 49.2287C61.9763 48.3033 63.5902 47.1816 64.7697 46.0785L53.8414 34.3921Z" fill="white" fill-opacity="0.5" mask="url(#path-3-inside-1_11_954)"/>
</svg>
