<svg width="64" height="58" viewBox="0 0 64 58" fill="none" xmlns="http://www.w3.org/2000/svg">
<path d="M52.6208 19.0238C51.9569 18.7953 51.269 18.579 50.5606 18.3746C50.677 17.8994 50.7839 17.4304 50.8789 16.9694C52.4385 9.39909 51.4188 3.30043 47.9368 1.29249C44.5981 -0.632853 39.1378 1.37463 33.6232 6.17382C33.0929 6.6353 32.5612 7.1239 32.0296 7.63597C31.6754 7.29717 31.3218 6.96977 30.9691 6.6566C25.1897 1.525 19.3967 -0.637524 15.9181 1.37622C12.5826 3.30715 11.5948 9.04048 12.9986 16.2149C13.1342 16.9078 13.2927 17.6155 13.4718 18.335C12.652 18.5678 11.8605 18.8159 11.1031 19.0798C4.32733 21.4422 0 25.1445 0 28.9849C0 32.9512 4.64539 36.9295 11.7029 39.3417C12.2599 39.5321 12.8378 39.7121 13.4333 39.8829C13.24 40.6611 13.0719 41.4237 12.9307 42.1675C11.5922 49.2174 12.6375 54.8152 15.9642 56.734C19.4003 58.7155 25.1671 56.6787 30.7825 51.7702C31.2264 51.3822 31.6718 50.9707 32.118 50.5394C32.6964 51.0963 33.2738 51.6235 33.8482 52.1179C39.2874 56.7985 44.6595 58.6885 47.9831 56.7644C51.4158 54.7772 52.5314 48.7637 51.083 41.4474C50.9724 40.8886 50.8437 40.3178 50.6991 39.7368C51.1041 39.6171 51.5017 39.4935 51.8894 39.365C59.2263 36.934 64 33.0042 64 28.9849C64 25.1306 59.5331 21.4033 52.6208 19.0238ZM51.0295 36.7698C50.6796 36.8856 50.3205 36.9976 49.9546 37.1062C49.1446 34.542 48.0514 31.8153 46.7137 28.9982C47.9903 26.2482 49.0412 23.5564 49.8285 21.0088C50.4832 21.1983 51.1186 21.3981 51.7309 21.6089C57.6533 23.6478 61.2659 26.6622 61.2659 28.9849C61.2659 31.459 57.3644 34.6707 51.0295 36.7698ZM48.4009 41.9784C49.0414 45.2136 49.1329 48.1385 48.7086 50.4251C48.3275 52.4798 47.5609 53.8497 46.6131 54.3983C44.5962 55.5657 40.2829 54.0482 35.6313 50.0453C35.098 49.5865 34.5609 49.0965 34.0221 48.5779C35.8254 46.6057 37.6277 44.3128 39.3867 41.7664C42.4807 41.4918 45.4037 41.043 48.0545 40.4302C48.1851 40.9569 48.301 41.4734 48.4009 41.9784ZM21.819 54.1965C19.8485 54.8925 18.279 54.9124 17.3303 54.3654C15.3115 53.201 14.4723 48.7064 15.6171 42.6774C15.7482 41.9869 15.9043 41.2777 16.0841 40.5527C18.7059 41.1324 21.6075 41.5496 24.7088 41.801C26.4797 44.2928 28.3341 46.5831 30.2028 48.5885C29.7945 48.9827 29.3878 49.3579 28.9834 49.7115C26.5003 51.882 24.012 53.422 21.819 54.1965ZM12.5872 36.7546C9.46645 35.688 6.88926 34.3017 5.12272 32.789C3.53537 31.4296 2.73395 30.08 2.73395 28.9849C2.73395 26.6544 6.20836 23.6819 12.0031 21.6616C12.7062 21.4164 13.4422 21.1854 14.2061 20.9684C15.0069 23.5735 16.0575 26.2972 17.3253 29.0514C16.0411 31.8465 14.9756 34.6136 14.1669 37.2492C13.6223 37.0927 13.0948 36.928 12.5872 36.7546ZM15.6818 15.6898C14.479 9.54297 15.2778 4.90601 17.2879 3.74244C19.429 2.50289 24.1636 4.27023 29.1537 8.70111C29.4727 8.98431 29.7929 9.28073 30.1141 9.5874C28.2546 11.5841 26.4172 13.8572 24.662 16.3343C21.652 16.6133 18.7708 17.0614 16.1217 17.6615C15.9552 16.9916 15.8076 16.3334 15.6818 15.6898ZM43.2885 22.5066C42.6552 21.4128 42.0051 20.3448 41.3423 19.306C43.3843 19.5641 45.3407 19.9068 47.178 20.3261C46.6264 22.0939 45.9389 23.9422 45.1296 25.8371C44.5491 24.7349 43.9351 23.6236 43.2885 22.5066ZM32.0305 11.5413C33.2916 12.9076 34.5545 14.433 35.7967 16.088C34.545 16.0288 33.2777 15.9981 32 15.9981C30.7344 15.9981 29.4765 16.0282 28.2325 16.0863C29.4759 14.4466 30.7497 12.9233 32.0305 11.5413ZM20.7005 22.5255C20.0679 23.6225 19.4653 24.7277 18.8938 25.835C18.0977 23.9468 17.4165 22.09 16.8601 20.2972C18.6862 19.8885 20.6334 19.5544 22.6624 19.3012C21.9903 20.3496 21.3348 21.4254 20.7005 22.5253V22.5255ZM22.7208 38.8636C20.6245 38.6297 18.648 38.3128 16.8224 37.9154C17.3877 36.0906 18.0839 34.1942 18.8969 32.2653C19.4698 33.3718 20.0748 34.4775 20.7113 35.5768H20.7114C21.3597 36.6967 22.0314 37.7938 22.7208 38.8636ZM32.1062 46.6211C30.8103 45.223 29.5178 43.6765 28.2555 42.0129C29.4809 42.061 30.7303 42.0856 32 42.0856C33.3045 42.0856 34.5941 42.0562 35.8633 41.9997C34.6171 43.6932 33.3587 45.2422 32.1062 46.6211ZM45.1557 32.167C46.0111 34.1167 46.7323 36.0032 47.3048 37.797C45.4492 38.2203 43.4457 38.5613 41.3348 38.8146C41.9991 37.7618 42.655 36.6754 43.2994 35.558C43.9514 34.4275 44.5704 33.2952 45.1557 32.167ZM40.9311 34.1921C39.9307 35.9268 38.9036 37.5827 37.8609 39.1458C35.9618 39.2816 33.9997 39.3515 32 39.3515C30.0084 39.3515 28.071 39.2897 26.2055 39.1686C25.1208 37.585 24.0713 35.9241 23.0773 34.207H23.0775C22.0861 32.4946 21.1736 30.7677 20.3468 29.0505C21.1734 27.3293 22.0835 25.6004 23.0692 23.8911L23.069 23.8914C24.0573 22.1775 25.0975 20.5248 26.1722 18.9511C28.0756 18.8072 30.0274 18.7321 31.9999 18.7321H32C33.9814 18.7321 35.9357 18.8078 37.8385 18.9529C38.8968 20.5151 39.9299 22.1625 40.9221 23.8766C41.9257 25.61 42.8475 27.3273 43.6812 29.0116C42.85 30.7249 41.9302 32.4595 40.9311 34.1921ZM46.5712 3.6611C48.7143 4.89701 49.5478 9.88143 48.2012 16.4175C48.1153 16.8346 48.0186 17.2594 47.9136 17.6899C45.2584 17.0772 42.3751 16.6213 39.3563 16.3381C37.5978 13.8339 35.7754 11.5572 33.9462 9.58615C34.438 9.11304 34.9291 8.66192 35.4181 8.23621C40.1431 4.1243 44.5591 2.50083 46.5712 3.6611ZM32 23.2699C35.1562 23.2699 37.715 25.8285 37.715 28.9849C37.715 32.1411 35.1562 34.6999 32 34.6999C28.8438 34.6999 26.285 32.1411 26.285 28.9849C26.285 25.8285 28.8438 23.2699 32 23.2699Z" fill="white" fill-opacity="0.5"/>
</svg>
