<svg width="33" height="33" viewBox="0 0 33 33" fill="none" xmlns="http://www.w3.org/2000/svg">
<path d="M30.8594 0.609325L1.73437 8.81245C1.48644 8.88023 1.26544 9.0228 1.10146 9.22072C0.937483 9.41865 0.838504 9.66231 0.818008 9.91852C0.797511 10.1747 0.856493 10.431 0.986919 10.6525C1.11734 10.874 1.31287 11.0499 1.54687 11.1562L14.9219 17.4843C15.1839 17.6057 15.3943 17.8161 15.5156 18.0781L21.8437 31.4531C21.9501 31.6871 22.126 31.8826 22.3474 32.013C22.5689 32.1435 22.8252 32.2024 23.0814 32.1819C23.3376 32.1614 23.5813 32.0625 23.7792 31.8985C23.9771 31.7345 24.1197 31.5135 24.1875 31.2656L32.3906 2.14058C32.4528 1.92804 32.4566 1.7027 32.4017 1.48816C32.3469 1.27363 32.2353 1.07781 32.0787 0.921232C31.9221 0.764651 31.7263 0.653074 31.5118 0.598197C31.2973 0.54332 31.0719 0.547164 30.8594 0.609325V0.609325Z" stroke="white" stroke-linecap="round" stroke-linejoin="round"/>
<path d="M15.3281 17.6716L22.3906 10.6091" stroke="white" stroke-linecap="round" stroke-linejoin="round"/>
</svg>
