<svg width="64" height="65" viewBox="0 0 64 65" fill="none" xmlns="http://www.w3.org/2000/svg">
<g clip-path="url(#clip0_11_934)">
<path fill-rule="evenodd" clip-rule="evenodd" d="M59 0.0678711H5C2.23858 0.0678711 0 2.30645 0 5.06787V59.0679C0 61.8293 2.23858 64.0679 5 64.0679H59C61.7614 64.0679 64 61.8293 64 59.0679V5.06787C64 2.30645 61.7614 0.0678711 59 0.0678711ZM37.6295 57.0916V50.1866C38.882 51.2369 40.2425 52.0244 41.7113 52.5494C43.1797 53.0746 44.6625 53.3371 46.1598 53.3371C47.038 53.3371 47.8048 53.2579 48.4598 53.0996C49.1147 52.9414 49.662 52.7221 50.101 52.4416C50.54 52.1611 50.8677 51.8301 51.0835 51.4491C51.2995 51.0679 51.4075 50.6541 51.4075 50.2084C51.4075 49.6041 51.2348 49.0646 50.8893 48.5899C50.5438 48.1151 50.0723 47.6764 49.4748 47.2736C48.8773 46.8709 48.1683 46.4826 47.3475 46.1086C46.527 45.7344 45.6415 45.3534 44.6912 44.9649C42.2725 43.9579 40.4695 42.7279 39.2817 41.2751C38.0938 39.8221 37.5 38.0671 37.5 36.0101C37.5 34.3989 37.824 33.0144 38.4717 31.8564C39.1197 30.6984 40.0015 29.7454 41.1172 28.9971C42.233 28.2491 43.5253 27.6989 44.9938 27.3466C46.4622 26.9941 48.017 26.8179 49.6582 26.8179C51.2707 26.8179 52.6997 26.9149 53.945 27.1091C55.1903 27.3034 56.3385 27.6019 57.3895 28.0046V34.4564C56.8713 34.0969 56.306 33.7804 55.6942 33.5071C55.0822 33.2336 54.4525 33.0071 53.8047 32.8274C53.1567 32.6474 52.5125 32.5144 51.8717 32.4281C51.2313 32.3419 50.623 32.2986 50.047 32.2986C49.2552 32.2986 48.5353 32.3741 47.8875 32.5251C47.2395 32.6764 46.6925 32.8884 46.2463 33.1619C45.8 33.4351 45.4543 33.7624 45.2095 34.1436C44.9647 34.5249 44.8425 34.9526 44.8425 35.4274C44.8425 35.9454 44.9793 36.4091 45.2528 36.8191C45.5262 37.2291 45.915 37.6176 46.419 37.9844C46.9227 38.3514 47.5348 38.7109 48.2545 39.0634C48.9745 39.4159 49.7878 39.7789 50.6948 40.1531C51.933 40.6709 53.0452 41.2211 54.0315 41.8036C55.0175 42.3864 55.8635 43.0444 56.5687 43.7781C57.2743 44.5116 57.8143 45.3496 58.1885 46.2919C58.5627 47.2341 58.75 48.3311 58.75 49.5826C58.75 51.3089 58.4225 52.7581 57.7675 53.9304C57.1123 55.1029 56.2233 56.0524 55.1003 56.7789C53.9775 57.5051 52.6708 58.0266 51.1808 58.3431C49.6908 58.6596 48.1177 58.8179 46.4622 58.8179C44.7632 58.8179 43.1472 58.6741 41.614 58.3864C40.0807 58.0986 38.7525 57.6671 37.6295 57.0916ZM35 33.0034H26.1205V58.3179H19.0862V33.0034H10.25V27.3179H35V33.0034Z" fill="white" fill-opacity="0.5"/>
</g>
<defs>
<clipPath id="clip0_11_934">
<rect width="64" height="64" fill="white" transform="translate(0 0.0678711)"/>
</clipPath>
</defs>
</svg>
